<svg xmlns="http://www.w3.org/2000/svg" width="139.79mm" height="46.7mm" viewBox="0 0 396.26 132.38"><defs><style>.a7db319f-946f-45cb-a0ce-4e82e38ba3d3,.b299c355-b21f-4026-9683-563154654390{fill:#b39061;}.b299c355-b21f-4026-9683-563154654390{stroke:#b69262;stroke-miterlimit:10;stroke-width:0.15px;}.b9f6bd54-bd41-4bfa-9d5c-c90073b14831{fill:#89283c;}.b4fafcef-bee9-48ee-ab05-e31491da3cd5{fill:#171e31;}</style></defs><g id="fffbec36-0b1a-4a47-9015-ab0c8bf5dbcd" data-name="Capa 2"><g id="aa1c85b7-4cb4-4c7d-8c9a-fdd03ae989c0" data-name="Capa 1"><path class="a7db319f-946f-45cb-a0ce-4e82e38ba3d3" d="M97.41,110.75a.31.31,0,0,0-.39-.16c-7.56,3-24.08,4.45-24.93,4.45h0a.3.3,0,0,0-.17.58h0l.11,0c-5.46.37-12.23.68-19.6.68-7,0-13.3-.28-18.4-.62a1.23,1.23,0,0,0,.26-.12.3.3,0,0,0,.14-.4.32.32,0,0,0-.33-.17h0c-.86,0-17.37-1.47-24.93-4.45a.31.31,0,0,0-.39.16.29.29,0,0,0,.14.39c.73.38,6.13,3.17,8.78,4.16a29.19,29.19,0,0,1-8.26.47.3.3,0,0,0-.33.25.31.31,0,0,0,.21.35c.36.1,8.4,2.31,11.25,2.43v1.8a.3.3,0,0,0,.27.3,281.07,281.07,0,0,0,31.6,2c16.2,0,32.77-1.89,32.93-1.91a.3.3,0,0,0,.27-.3V118.8c2.86-.12,10.89-2.33,11.24-2.43a.31.31,0,0,0,.22-.35.3.3,0,0,0-.33-.25,29.17,29.17,0,0,1-8.26-.47c2.64-1,8.05-3.78,8.78-4.16a.31.31,0,0,0,.14-.39M12.19,116.5a33.41,33.41,0,0,0,6.82-.86.31.31,0,0,0,.23-.34.3.3,0,0,0-.31-.26c-.62,0-3.48-1.31-6.32-2.71a105.1,105.1,0,0,0,11.74,2.25c2.63.38,5.69.74,7.72.92a9.31,9.31,0,0,1-1.05,0c-5.9-.46-9.63-1-10.09-1.06a.28.28,0,0,0-.25,0,.31.31,0,0,0-.13.25v3.45a58,58,0,0,1-8.36-1.69m40.23,5.76a281.13,281.13,0,0,1-31.26-1.93V115.1c1.06.16,4.15.55,8.68.93h0c.05,0,.55.07,1.23.1,5.53.43,12.94.83,21.35.83,9.39,0,17.82-.51,23.8-1h.26c4.48-.37,7.54-.73,8.53-.85v5.3c-2.21.24-17.56,1.87-32.59,1.87M87.23,115a.3.3,0,0,0-.3.26.31.31,0,0,0,.23.34,33.38,33.38,0,0,0,6.81.86,59,59,0,0,1-8.35,1.69v-3.45a.33.33,0,0,0-.1-.23.31.31,0,0,0-.24-.07c-.07,0-3.51.45-9.08.91l-.92,0c1.93-.2,4.38-.5,6.54-.81a106,106,0,0,0,11.74-2.25c-2.84,1.4-5.71,2.71-6.33,2.71"/><path class="a7db319f-946f-45cb-a0ce-4e82e38ba3d3" d="M22.68,117.05l-.13-.17a.42.42,0,0,0-.34.36.23.23,0,0,0,.2.27.18.18,0,0,0,.21-.16c0-.1,0-.16-.13-.16a.28.28,0,0,1,.19-.14"/><path class="a7db319f-946f-45cb-a0ce-4e82e38ba3d3" d="M22.11,117l-.12-.17a.41.41,0,0,0-.34.36.22.22,0,0,0,.19.27.18.18,0,0,0,.21-.16.14.14,0,0,0-.12-.17.25.25,0,0,1,.18-.13"/><path class="a7db319f-946f-45cb-a0ce-4e82e38ba3d3" d="M24.74,117.13l-.71-.07,0,.33h.17c0,.28-.05.56-.08.84s-.17.45-.43.42-.36-.19-.33-.5l.09-.83h.17l0-.32-.73-.07,0,.32.17,0-.09.83a.76.76,0,1,0,1.51.16c0-.28.05-.56.08-.84l.17,0c0-.11,0-.22,0-.33"/><path class="a7db319f-946f-45cb-a0ce-4e82e38ba3d3" d="M26.08,117.26l0,.33h.16c0,.17,0,.33-.05.5s0,.48,0,.48h0c-.24-.46-.48-.92-.71-1.38l-.52,0,0,.32.17,0-.12,1.28h-.18l0,.32.66.06,0-.32h-.16l0-.49c0-.26.05-.5.05-.5h0l.71,1.39.34,0,.15-1.61.18,0,0-.32-.66-.07"/><path class="a7db319f-946f-45cb-a0ce-4e82e38ba3d3" d="M26.87,117.66l.18,0L26.93,119l-.18,0,0,.32.73.07,0-.33H27.3l.12-1.29.17,0,0-.32-.72-.07,0,.32"/><path class="a7db319f-946f-45cb-a0ce-4e82e38ba3d3" d="M29.61,117.58l-.7-.06,0,.32H29l-.27.68c-.15.37-.2.54-.21.54h0s0-.17-.12-.57c0-.24-.09-.47-.14-.71h.15l0-.32-.73-.06,0,.32h.17l.39,1.66.46,0c.23-.52.45-1,.67-1.57l.17,0,0-.32"/><path class="a7db319f-946f-45cb-a0ce-4e82e38ba3d3" d="M29.71,117.91h.17l-.1,1.29H29.6l0,.32,1.46.11,0-.61-.35,0a2.64,2.64,0,0,0,0,.28l-.56,0c0-.17,0-.34,0-.51l.51,0,0-.32-.51,0,0-.46.54,0,0,.26.35,0c0-.19,0-.39,0-.58l-1.43-.11c0,.1,0,.21,0,.32"/><path class="a7db319f-946f-45cb-a0ce-4e82e38ba3d3" d="M32.46,118.93a.49.49,0,0,0,.4-.48.61.61,0,0,0-.65-.67l-.81-.06,0,.32h.18c0,.43-.07.86-.1,1.29h-.18c0,.11,0,.21,0,.32l.71,0,0-.32h-.17l0-.41h.23l.31.75.49,0,0-.32-.23,0c-.07-.17-.15-.33-.22-.5m-.3-.24-.29,0,.05-.59.27,0a.3.3,0,1,1,0,.59"/><path class="a7db319f-946f-45cb-a0ce-4e82e38ba3d3" d="M34.15,118h0a.51.51,0,0,0-.41-.19.52.52,0,0,0-.61.5c0,.41.28.54.5.63s.43.14.42.35-.12.24-.32.23-.34-.13-.32-.33v-.07l-.34,0,0,.64.32,0,0-.12h0a.6.6,0,0,0,.43.19.55.55,0,0,0,.64-.53c0-.42-.29-.55-.57-.66s-.37-.13-.35-.32.12-.22.29-.21.33.13.31.33v.07l.33,0c0-.21,0-.42,0-.64l-.32,0V118"/><path class="a7db319f-946f-45cb-a0ce-4e82e38ba3d3" d="M34.69,118.27h.18l-.09,1.29h-.17c0,.11,0,.22,0,.32l.72.05,0-.32-.17,0c0-.42.05-.85.08-1.28h.17c0-.11,0-.22,0-.33l-.72,0c0,.11,0,.21,0,.32"/><path class="a7db319f-946f-45cb-a0ce-4e82e38ba3d3" d="M36.45,118.05l-.82,0c0,.1,0,.21,0,.32h.18c0,.43,0,.86-.08,1.29h-.18c0,.1,0,.21,0,.32l.84,0a.88.88,0,0,0,1-.91.9.9,0,0,0-.87-1m-.11,1.61h-.25c0-.43,0-.86.07-1.29l.25,0c.32,0,.56.22.53.69a.54.54,0,0,1-.6.59"/><path class="a7db319f-946f-45cb-a0ce-4e82e38ba3d3" d="M38.6,118.17l-.79,0c0,.11,0,.22,0,.32H38l-.07.2-.43,1.06H37.3c0,.11,0,.22,0,.32l.68,0c0-.11,0-.22,0-.32h-.15l.1-.28.66,0,.08.28h-.15c0,.11,0,.22,0,.33l.72,0c0-.1,0-.21,0-.32h-.17c-.16-.55-.31-1.09-.46-1.64m-.55,1,.06-.18c.13-.33.2-.55.2-.56h0a4.52,4.52,0,0,0,.14.57,1.33,1.33,0,0,0,0,.19l-.46,0"/><path class="a7db319f-946f-45cb-a0ce-4e82e38ba3d3" d="M40.25,118.25l-.82,0c0,.11,0,.22,0,.33h.17l-.06,1.29h-.18c0,.11,0,.22,0,.33l.83,0a.88.88,0,0,0,1-.92.89.89,0,0,0-.88-1m-.09,1.61h-.25c0-.43,0-.86.05-1.29h.25c.32,0,.56.22.54.69a.55.55,0,0,1-.59.6"/><path class="a7db319f-946f-45cb-a0ce-4e82e38ba3d3" d="M42.78,118.35l-.82,0v.32h.18l-.05,1.29H41.9c0,.11,0,.22,0,.33l.83,0a.87.87,0,0,0,1-.93.89.89,0,0,0-.89-1M42.71,120h-.26c0-.43,0-.85,0-1.28h.25c.32,0,.56.22.55.68s-.28.62-.59.61"/><path class="a7db319f-946f-45cb-a0ce-4e82e38ba3d3" d="M43.86,118.71H44c0,.43,0,.86,0,1.29h-.18c0,.11,0,.22,0,.33l1.46,0c0-.2,0-.41,0-.61h-.35c0,.09,0,.19,0,.29l-.56,0c0-.17,0-.34,0-.51h.51c0-.1,0-.21,0-.32h-.51c0-.16,0-.31,0-.46l.54,0V119h.34c0-.2,0-.39,0-.59l-1.43,0c0,.11,0,.21,0,.32"/><path class="a7db319f-946f-45cb-a0ce-4e82e38ba3d3" d="M46.56,120.08H46l0-1.3h.18c0-.11,0-.22,0-.32l-.73,0v.32h.17l0,1.29h-.18v.33l1.42,0c0-.2,0-.4,0-.6h-.35a2.62,2.62,0,0,0,0,.28"/><path class="a7db319f-946f-45cb-a0ce-4e82e38ba3d3" d="M48.55,118.5h-.79c0,.11,0,.21,0,.32h.18l0,1.3h-.17c0,.11,0,.22,0,.33h.73c0-.11,0-.22,0-.33h-.18v-.37h.25c.44,0,.7-.2.71-.6s-.25-.63-.69-.64m0,.93h-.25c0-.21,0-.41,0-.61h.25a.28.28,0,0,1,.32.31.28.28,0,0,1-.33.3"/><path class="a7db319f-946f-45cb-a0ce-4e82e38ba3d3" d="M50.48,118.85h.18c0,.28,0,.56,0,.84s-.12.46-.39.46-.37-.16-.37-.47,0-.56,0-.84h.17c0-.1,0-.21,0-.32h-.74v.33h.17c0,.28,0,.56,0,.84,0,.54.27.81.75.82a.71.71,0,0,0,.76-.8v-.85h.17v-.32h-.7c0,.11,0,.22,0,.33"/><path class="a7db319f-946f-45cb-a0ce-4e82e38ba3d3" d="M52.45,120.15h-.56v-.51h.51v-.32h-.51v-.46h.54v.26h.35v-.58H51.35v.33h.17c0,.43,0,.86,0,1.29h-.17v.32H52.8v-.62h-.35v.29"/><path class="a7db319f-946f-45cb-a0ce-4e82e38ba3d3" d="M54.19,119.44h0a.4.4,0,0,0,.27-.41.5.5,0,0,0-.57-.48H53v.32h.17v1.29H53v.33h.9c.4,0,.65-.2.64-.54a.49.49,0,0,0-.37-.49m-.63-.59h.27c.17,0,.26.09.26.23a.23.23,0,0,1-.24.25h-.29v-.48m.33,1.31h-.32c0-.19,0-.38,0-.56h.33a.26.26,0,0,1,.29.28.26.26,0,0,1-.29.27"/><path class="a7db319f-946f-45cb-a0ce-4e82e38ba3d3" d="M55.8,119.86v.28h-.52c0-.43,0-.86,0-1.29h.18c0-.11,0-.22,0-.32h-.72v.33h.18v1.3h-.18v.32h1.42v-.6H55.8"/><path class="a7db319f-946f-45cb-a0ce-4e82e38ba3d3" d="M57.14,118.47a1,1,0,1,0,.93,1,.9.9,0,0,0-.93-1m0,1.66c-.32,0-.54-.21-.54-.65s.2-.66.52-.66.54.21.55.65-.21.66-.53.66"/><path class="a7db319f-946f-45cb-a0ce-4e82e38ba3d3" d="M59.85,118.46v.32H60l-.15.25-.15.27h0l-.16-.25-.16-.26h.15v-.33l-.75,0c0,.11,0,.22,0,.32H59l.54.82c0,.15,0,.31,0,.46h-.18c0,.11,0,.22,0,.33l.73,0c0-.11,0-.21,0-.32h-.18v-.46c.17-.28.34-.56.5-.84h.17c0-.1,0-.21,0-.32l-.67,0"/><path class="a7db319f-946f-45cb-a0ce-4e82e38ba3d3" d="M62.09,118.4l-.8,0v.32h.18c0,.43,0,.86,0,1.29h-.18v.33l.73,0V120h-.18c0-.13,0-.25,0-.38h.25c.43,0,.69-.23.67-.63a.6.6,0,0,0-.71-.6m0,.93h-.25l0-.61h.25c.21,0,.33.1.33.3s-.09.31-.31.32"/><path class="a7db319f-946f-45cb-a0ce-4e82e38ba3d3" d="M64.53,119.92l-.6-1.59-.78,0c0,.11,0,.22,0,.32h.17s0,.13,0,.21L63,120h-.18c0,.11,0,.22,0,.32l.68,0c0-.11,0-.22,0-.32H63.3c0-.09.06-.19.08-.28l.66,0,.1.28H64c0,.1,0,.21,0,.32l.71,0v-.32h-.18m-1.06-.54a1.21,1.21,0,0,0,.05-.18c.1-.34.14-.57.15-.58h0s.06.23.18.56l.07.19h-.46"/><path class="a7db319f-946f-45cb-a0ce-4e82e38ba3d3" d="M66.24,119.85l-.28-.47a.5.5,0,0,0,.34-.53c0-.37-.28-.6-.73-.59l-.81,0c0,.11,0,.21,0,.32H65l.06,1.29h-.18c0,.11,0,.22,0,.33l.72,0c0-.11,0-.22,0-.33h-.16l0-.41h.23c.13.24.26.48.4.72l.49,0v-.33h-.23m-.61-.68-.28,0,0-.59h.27a.27.27,0,0,1,.33.28.26.26,0,0,1-.29.3"/><path class="a7db319f-946f-45cb-a0ce-4e82e38ba3d3" d="M68.33,119.75l-.62-1.59-.79,0c0,.11,0,.22,0,.33h.18s0,.13-.06.21c-.1.37-.21.73-.31,1.1h-.18c0,.11,0,.21,0,.32l.68,0c0-.11,0-.22,0-.33H67.1c0-.09.05-.19.08-.28l.66,0,.1.28H67.8c0,.1,0,.21,0,.32l.71,0v-.32h-.18m-1.07-.53a1.21,1.21,0,0,0,0-.18c.09-.34.14-.57.14-.58h0s.07.23.19.55a1.46,1.46,0,0,1,.07.19l-.46,0"/><path class="a7db319f-946f-45cb-a0ce-4e82e38ba3d3" d="M70.36,119.35v.28l-.56,0,0-.51.51,0c0-.11,0-.22,0-.33l-.51,0c0-.15,0-.3,0-.45l.54,0c0,.08,0,.17,0,.26l.35,0,0-.59-1.44.09,0,.32h.18c0,.43,0,.86.07,1.29h-.18c0,.11,0,.21,0,.32l1.46-.08c0-.21,0-.41,0-.61l-.34,0"/><path class="a7db319f-946f-45cb-a0ce-4e82e38ba3d3" d="M72,119.25a2.46,2.46,0,0,0,0,.28l-.52,0-.08-1.29h.17c0-.11,0-.22,0-.33l-.72,0,0,.32H71c0,.43,0,.86.08,1.29h-.18c0,.11,0,.22,0,.32l1.42-.09c0-.2,0-.4,0-.6Z"/><path class="a7db319f-946f-45cb-a0ce-4e82e38ba3d3" d="M73.85,117.78l-.79.06c0,.11,0,.22,0,.32h.18l.09,1.29h-.18c0,.11,0,.22,0,.33l.73-.06c0-.1,0-.21,0-.32h-.18l0-.37.25,0c.44,0,.68-.26.65-.66a.61.61,0,0,0-.74-.58m.08.93-.26,0c0-.2,0-.41,0-.61l.25,0a.28.28,0,0,1,.34.29.27.27,0,0,1-.29.32"/><path class="a7db319f-946f-45cb-a0ce-4e82e38ba3d3" d="M76.49,117.58l-.71.06,0,.32H76c0,.28,0,.56.07.83s-.08.48-.34.5-.4-.13-.42-.44l-.07-.83.18,0,0-.32-.73.06,0,.32h.17c0,.28,0,.56.07.84a.75.75,0,1,0,1.5-.12c0-.28,0-.56-.07-.84l.18,0Z"/><path class="a7db319f-946f-45cb-a0ce-4e82e38ba3d3" d="M77.86,118.8l0,.29-.56,0c0-.17,0-.34,0-.51l.51,0,0-.32-.51,0c0-.15,0-.3,0-.45l.54,0,0,.26.34,0c0-.19,0-.39-.05-.58l-1.43.12,0,.32h.17c0,.43.08.86.11,1.28l-.17,0c0,.11,0,.21,0,.32l1.46-.12c0-.2,0-.41-.05-.61l-.35,0"/><path class="a7db319f-946f-45cb-a0ce-4e82e38ba3d3" d="M79.56,118.22h0a.39.39,0,0,0,.23-.42.51.51,0,0,0-.61-.44l-.87.08c0,.1,0,.21,0,.32l.18,0,.12,1.29-.18,0,0,.32.9-.08c.4,0,.63-.26.59-.6a.48.48,0,0,0-.41-.46m-.68-.53.27,0a.23.23,0,0,1,.28.22.23.23,0,0,1-.23.26l-.28,0,0-.48m.44,1.28L79,119l0-.56.32,0a.28.28,0,0,1,.32.26.26.26,0,0,1-.27.3"/><path class="a7db319f-946f-45cb-a0ce-4e82e38ba3d3" d="M81.19,118.5l0,.28-.51,0c0-.43-.09-.86-.13-1.29h.18l0-.33-.71.07,0,.33.17,0,.12,1.28-.17,0,0,.32,1.41-.13-.06-.6-.35,0"/><path class="a7db319f-946f-45cb-a0ce-4e82e38ba3d3" d="M82.42,117a1,1,0,0,0,.2,2,.9.9,0,0,0,.81-1.1.89.89,0,0,0-1-.9m.17,1.65c-.32,0-.55-.16-.6-.6s.15-.67.47-.71.55.17.6.6-.15.68-.47.71"/><path class="a7db319f-946f-45cb-a0ce-4e82e38ba3d3" d="M83.69,116.87a.18.18,0,0,0-.17.19.14.14,0,0,0,.16.14.28.28,0,0,1-.15.17l.16.14a.43.43,0,0,0,.25-.43.22.22,0,0,0-.25-.21"/><path class="a7db319f-946f-45cb-a0ce-4e82e38ba3d3" d="M84.26,116.81a.17.17,0,0,0-.18.19.14.14,0,0,0,.17.14.28.28,0,0,1-.15.17l.15.14a.43.43,0,0,0,.26-.43.21.21,0,0,0-.25-.21"/><path class="a7db319f-946f-45cb-a0ce-4e82e38ba3d3" d="M105.88,17.91a.56.56,0,0,0-.17-.25L80.71.09A.49.49,0,0,0,80.43,0H25.72a.47.47,0,0,0-.28.09L.45,17.66A1.16,1.16,0,0,0,0,18.81c.06.57.36.83,1.23,1.31l.13.07.59.34c.18.1.37.22.52.32l.31.24c.11.08.29.25.29.25a6.91,6.91,0,0,1,1.66,2.09,6.19,6.19,0,0,1,1,3.42v93.89c0,3.11.14,5,2.82,5.87,2.43.8,7.19.79,16.62.8h.53c19,0,27.05,4.84,27.13,4.89a.44.44,0,0,0,.25.08.5.5,0,0,0,.26-.08c.08-.05,8.14-4.89,27.13-4.89H81c9.46,0,14.19,0,16.61-.8,2.69-.88,2.84-2.76,2.84-5.9V26.89a6.21,6.21,0,0,1,1-3.38,7.09,7.09,0,0,1,1.67-2.09l.29-.26.31-.23.52-.33c.2-.12.4-.24.59-.33l.13-.07c.87-.48,1.17-.74,1.23-1.31A1.23,1.23,0,0,0,105.88,17.91Zm-7.3,102c0,3.2-.09,4.24-2,4.86-2.25.74-6.85.75-16.06.74H80c-17.36,0-25.44,4-26.95,4.81-1.51-.84-9.58-4.81-26.94-4.81H25.6c-9.21,0-13.81,0-16-.74-1.89-.62-2-1.66-2-4.9V26.21c0-3.94-3.57-6.79-5.11-7.72L26.31,1.73H79.84L95.78,13v0l7.92,5.57c-1.54.93-5.12,3.7-5.12,7.64Z"/><path class="b299c355-b21f-4026-9683-563154654390" d="M52.19,20.48a.92.92,0,1,0-.78-.91.85.85,0,0,0,.78.91m0-1.13a.21.21,0,0,1,.19.22.21.21,0,0,1-.19.23.21.21,0,0,1-.19-.23.2.2,0,0,1,.19-.22"/><path class="b299c355-b21f-4026-9683-563154654390" d="M14.37,70.61a.43.43,0,0,0,0,0,20.84,20.84,0,0,0,4.33,8.06A27.64,27.64,0,0,0,29.45,86a.25.25,0,0,0,.26-.05.35.35,0,0,0,.12-.28V82.84L34,85.75l.09,0,4.78,1.11h0a.28.28,0,0,0,.21-.1.41.41,0,0,0,.08-.32l-.88-4.34a.36.36,0,0,0-.11-.2l-2.86-2.37,3.91.58a.27.27,0,0,0,.22-.08.36.36,0,0,0,.11-.25l.06-2a1.87,1.87,0,0,0,.47,0,2.88,2.88,0,0,0,1.28-.48l.2-.13,0,0a1.72,1.72,0,0,1-.09.46,1.6,1.6,0,0,0,.36,1.88,1.19,1.19,0,0,0,1.51,0,.5.5,0,0,1,.12-.08,3.13,3.13,0,0,1,.08.49c.06.51.13,1.22.69,1.39a2.51,2.51,0,0,0,1.23-.09A20.44,20.44,0,0,1,42.31,85a.36.36,0,0,0-.12.3.93.93,0,0,0,.25.59l0,0A7.69,7.69,0,0,1,39.72,88a9.61,9.61,0,0,0-7-.07c-3.52,1.16-3.47,6.23-3.47,6.28a.33.33,0,0,0,.22.33.28.28,0,0,0,.33-.18A8.48,8.48,0,0,1,31.25,92l.06-.07a4,4,0,0,1,1.34-1A7.83,7.83,0,0,0,32,92.73h0a6.73,6.73,0,0,0,1.14,5.45c.4.54.93,1,1.36,1a.49.49,0,0,0,.28-.09c.2-.14.38-.48.12-1.29a4.43,4.43,0,0,1,.6-3.78.36.36,0,0,0,.07-.1c.12-.18.24-.34.35-.48a4.67,4.67,0,0,0,1.35,3.58.27.27,0,0,0,.08.07l0,0a3.9,3.9,0,0,0,3.87.82.33.33,0,0,0,.19-.27.36.36,0,0,0-.11-.33,3.88,3.88,0,0,1-1.58-3v0a2,2,0,0,1,.2-.81C42.16,92.41,48.1,87,51.2,84.16v1H51a.32.32,0,0,0-.29.34v1h-.78a.33.33,0,0,0-.29.35v1.26H48.32a.32.32,0,0,0-.3.34v1.42H47a.32.32,0,0,0-.29.34v1.26h-.86a.33.33,0,0,0-.3.35V93.3s0,.06,0,.08l-3,6a.47.47,0,0,0,0,.1l-3.35,6.77a.39.39,0,0,0,0,.39l2.17,3.06a.29.29,0,0,0,.23.13.33.33,0,0,0,.13,0l3.23-2,2,2.85a.28.28,0,0,0,.23.12.27.27,0,0,0,.16-.06l3.64-2.89,2.85,3.36a.25.25,0,0,0,.21.1.25.25,0,0,0,.2-.1l2.88-3.4,3.71,3a.27.27,0,0,0,.17.06.28.28,0,0,0,.22-.12l2-2.85,3.22,2a.31.31,0,0,0,.13,0,.28.28,0,0,0,.23-.12l2.18-3.06a.37.37,0,0,0,0-.39L62.63,93.21V91.77a.33.33,0,0,0-.29-.35h-.87V90.16a.32.32,0,0,0-.29-.34h-1V88.4a.32.32,0,0,0-.3-.34H58.62V86.8a.33.33,0,0,0-.3-.35h-.78v-1a.32.32,0,0,0-.29-.34H57v-.94c3.07,2.86,8.95,8.18,11.2,9.33a2.19,2.19,0,0,1,.2,1.2,4.29,4.29,0,0,1-1.58,2.61.42.42,0,0,0-.11.33.34.34,0,0,0,.2.27,3.9,3.9,0,0,0,3.87-.82l0,0,.08-.07a4.73,4.73,0,0,0,1.35-3.57,4.71,4.71,0,0,1,1,4.35c-.26.81-.07,1.15.13,1.29a.47.47,0,0,0,.28.09c.43,0,1-.49,1.36-1A6.74,6.74,0,0,0,75.49,91a3.94,3.94,0,0,1,1.35,1l0,0a8.47,8.47,0,0,1,1.45,2.31.27.27,0,0,0,.32.18.34.34,0,0,0,.23-.33s0-5.12-3.47-6.28a9.65,9.65,0,0,0-7,.07,7.86,7.86,0,0,1-2.76-2.07l0,0a.89.89,0,0,0,.26-.59.39.39,0,0,0-.12-.3,20.33,20.33,0,0,1-3.23-3.65,2.55,2.55,0,0,0,1.24.09c.55-.17.63-.88.69-1.39a2.28,2.28,0,0,1,.08-.49l.12.08a1.18,1.18,0,0,0,1.51,0,1.6,1.6,0,0,0,.36-1.88,2.54,2.54,0,0,1-.1-.45l0,0a1,1,0,0,1,.22.12,2.83,2.83,0,0,0,1.28.48,1.62,1.62,0,0,0,.85-.08v0a.36.36,0,0,0,0,.25L71,82a.26.26,0,0,0,.21.16h0a.26.26,0,0,0,.2-.1c1.24-1.37,3-3.33,3.73-4.11a11,11,0,0,0,1.08,3,.31.31,0,0,0,.23.14h0a.29.29,0,0,0,.23-.13l1.54-2.16c-.71,3.44-1.29,6-1.3,6.08a.36.36,0,0,0,0,.23l1.62,4.17a.34.34,0,0,0,.2.19h.07a.31.31,0,0,0,.18-.07l3.62-3.31a.36.36,0,0,0,.11-.19v-.06l.36,1.8a.34.34,0,0,0,.2.25.27.27,0,0,0,.28-.08l2.52-2.69L84.22,90a.4.4,0,0,0,0,.15v5.43a.38.38,0,0,0,.1.26.27.27,0,0,0,.2.09h0c.16,0,3.93-.67,6.51-9.49,1.07-3.65,1.63-9.09,1.66-16.17,0-2.68,0-5.1-.12-6.84h0c-.07-1.56-.13-2.56-.14-2.69V41.28a14.9,14.9,0,0,0-1.09-5.86l0-.05a.31.31,0,0,0,0-.1,9.51,9.51,0,0,0-1.93-2.84,9.75,9.75,0,0,0-5.21-2.6h0a.26.26,0,0,0-.21,0,15.19,15.19,0,0,0-3.07-.18.22.22,0,0,0-.14,0,22.38,22.38,0,0,0-2.72.3l-.09,0-.58.1c-6.6,1.33-8.38.51-8.84.1l-.08-.08a3.66,3.66,0,0,0,1.77-2c.9-2.29-.08-5.27-.12-5.39a.28.28,0,0,0-.25-.22.28.28,0,0,0-.28.18,5.36,5.36,0,0,1-2.43,2.81v-.08A2.58,2.58,0,0,0,67,25v0l0-.08a1.71,1.71,0,0,0,.14-.41.59.59,0,0,0,0-.42l.18-.06c.3-.12.29-.51.29-.77v-.05c.35-.07.89-.32,1-.68a.54.54,0,0,0-.24-.61,2.27,2.27,0,0,1-.59-.94,5.2,5.2,0,0,0-.16-2.63,6.83,6.83,0,0,1,1.85,1.15,3.07,3.07,0,0,1-.75,2.22.41.41,0,0,0-.11.39.3.3,0,0,0,.28.23c2.17,0,2.85-2.34,2.92-3.7a3.58,3.58,0,0,0,.6-1.24,9.51,9.51,0,0,0,.29-2.6v-.14a1.25,1.25,0,0,0-.23-.88c-.27-.32-.82-.52-2.7-.52a8.91,8.91,0,0,1-1.19-.08,4.39,4.39,0,0,1-2.87-1.48l-.07-.07c-.65-.64-2.44-.68-4.37-.67h-.44c-.74,0-1.63-2.19-2-3.74a.29.29,0,0,0-.27-.25.29.29,0,0,0-.28.23c-.72,2.32-3,4.06-3.84,4.63h0a2.84,2.84,0,0,0,.42-3.09.3.3,0,0,0-.25-.17.27.27,0,0,0-.25.17,8.13,8.13,0,0,1-.63,1c0-2-.34-2.08-.51-2.12-.35-.1-.54.41-.61.6A2.86,2.86,0,0,1,51.5,9.59a5.53,5.53,0,0,0-.23-2.14A.3.3,0,0,0,51,7.22a.29.29,0,0,0-.28.16c-1.26,2.34-1.62,2.32-3.6,2.24-.42,0-.9,0-1.46,0a4.14,4.14,0,0,0-4.11,2.7,9.64,9.64,0,0,0-6.38,3.21A8.26,8.26,0,0,0,33.32,23a.28.28,0,0,0,.56,0c0-.05,1.11-4,3.94-5.76a3.38,3.38,0,0,0,.28,1.67,3.74,3.74,0,0,1,.49,1.19v0h0a.22.22,0,0,1,0,.08v.11a1.93,1.93,0,0,1,0,.24,8.31,8.31,0,0,1-.35,2.06.9.9,0,0,1-.05.09,1.86,1.86,0,0,0-.35,1,.86.86,0,0,0,.64.78h0a1.72,1.72,0,0,1,0,.31.47.47,0,0,0,0,.17,1.31,1.31,0,0,0,.34.86,1.86,1.86,0,0,1,0,.47,5.38,5.38,0,0,1-.09.92,8.69,8.69,0,0,1-4.18-2.4l0,0a.26.26,0,0,0-.41,0l0,0,0,.05s0,0,0,0a.24.24,0,0,0,0,.08v0a.31.31,0,0,0,0,.1h0s0,0,0,0a8.68,8.68,0,0,0,4.76,4.9,2.91,2.91,0,0,1-.76,1.4l0,0a3.62,3.62,0,0,1-2.62.9,11.18,11.18,0,0,1-4.41-1.21,16.59,16.59,0,0,0-6.89-1.69h0c-1.34,0-4.06.66-7.15,5.07C15.18,37.19,14,40.14,14,41.27V60.18h0v.45a21.56,21.56,0,0,0,.33,9.71c0,.09.05.18.08.27M29.25,85.23,28.74,85a.43.43,0,0,0-.12-.47c-.46-.36-.92-.73-1.36-1.11a.3.3,0,0,0-.47.09.44.44,0,0,0,.07.55l.15.13C20.75,81,16.62,76.36,15,70.54l.75-2.05c.09.27.22.61.38,1a.35.35,0,0,0,.3.23.42.42,0,0,0,.15,0,.44.44,0,0,0,.15-.53c-.13-.34-.25-.64-.34-.89l2.29,1.4q1.55,2.22,3.58,4.74c3.26,4.06,6.42,7.36,7,8Zm8.53-2.79.69,3.44a.31.31,0,0,0-.35.15l-.74-.17a.44.44,0,0,0,0-.69c-.48-.31-1-.64-1.43-1a.31.31,0,0,0-.46.13.44.44,0,0,0,.11.54c.41.3.84.59,1.26.87l-2.61-.61L29.72,82A117.1,117.1,0,0,1,19.18,69.34l1.29-3.52,3.17,1.43a64.71,64.71,0,0,0,4,5.25A89.3,89.3,0,0,0,34,79.34h0Zm-18-42.16,1.79,2.16A31.53,31.53,0,0,0,22.84,51l-2.41-.51a.27.27,0,0,0-.25.09l-1.49,1.69a47.7,47.7,0,0,1-.94-9.49c0-.14,0-.27,0-.41Zm5.42-5.09a.29.29,0,0,0,.21.09.33.33,0,0,0,.26-.14,4.12,4.12,0,0,1,.78-.87l.29-.22.12.09a1.86,1.86,0,0,0,1,.33,6,6,0,0,0-1.43,3,12.48,12.48,0,0,0,0,4l-1.86-2a.25.25,0,0,0-.38,0l-2.06,2a16.32,16.32,0,0,1,.81-4.84,8.41,8.41,0,0,1,2.84-4.1,3.58,3.58,0,0,0,.41.88,5.11,5.11,0,0,0-1.08,1.15.42.42,0,0,0,0,.55m4.19,4a2.78,2.78,0,0,0,.34.26h-.74a.25.25,0,0,0-.15.1h0L27,41.78A12,12,0,0,1,27,37.65a5.39,5.39,0,0,1,1-2.33,3.91,3.91,0,0,0,1.42,3.89m.91,1,.93,1.49a.32.32,0,0,0,.27.16.27.27,0,0,0,.2-.08.44.44,0,0,0,.07-.55l-.61-1,.37,0,.3.08c.86.87,2.13,2.27,3.54,3.88l-.08,2.11-.84-1.13a.3.3,0,0,0-.47,0,.45.45,0,0,0,0,.56c.27.37.52.71.76,1l-2.37-.42a19.47,19.47,0,0,1-2.91-6.17c.3,0,.6,0,.88,0m42.57,1.46,1.48-.12.88-.06a7.18,7.18,0,0,0,1.72,2.21c-1.89-.42-4.62,1.55-5.36,2.12a9,9,0,0,0-6.84-2.65,37.18,37.18,0,0,1,8.12-1.5m6.05,1.42a.88.88,0,0,1-.21-.58,2.11,2.11,0,0,1,.32-1C79.64,43.07,80.75,43,80.8,43a.28.28,0,0,0,.23-.16.4.4,0,0,0,0-.32A.73.73,0,0,1,81,42a1.51,1.51,0,0,1,.81-.67,2.14,2.14,0,0,0,1.26,1.26,1.22,1.22,0,0,0,.8,0,.34.34,0,0,0,.17-.2.36.36,0,0,0,0-.27,4.43,4.43,0,0,1,0-1.71c0-.26.06-.53.08-.82a6.84,6.84,0,0,0,2.16,1.65.2.2,0,0,0,.11,0,.29.29,0,0,0,.23-.12v0c0,.71.07,1.44.09,2.17-1.69,1.11-5.76,1.06-8.33.73a1.29,1.29,0,0,0,.47-.43.39.39,0,0,0,0-.44m7.62,17.7a.28.28,0,0,0,.2.17.24.24,0,0,0,.24-.08l1.35-1.38c-.08,1.25-.19,2.55-.34,3.89l-2.51,2.42c.17-2.45.26-4.68.31-6.59Zm2,2.68c.15-1.37.26-2.68.35-3.94l1,1.31c0,.47-.14,2-.32,4.08Zm1.68-3.23-1.28-1.67a52,52,0,0,0,0-6.4L89.83,51V52a.34.34,0,1,0,.67,0V50.85l1.35,1.38v6.41ZM89.87,49.9l-1.3,1.65-1.07-1c0-.73,0-3.83-.14-7.09h0c-.06-1.65-.14-3.33-.25-4.78a2.43,2.43,0,0,0,1.81,1,.9.9,0,0,0,.3,0,.32.32,0,0,0,.22-.25.11.11,0,0,1,0-.05A17.3,17.3,0,0,1,89.86,43c0,4.72,0,6.36,0,6.92m-2.68,1.19,0,0h-.09Zm-.11,2.8h0a.36.36,0,0,0,.33-.37c0-.77.07-1.46.09-2a.59.59,0,0,0,0-.14l.81.8a50.36,50.36,0,0,1,0,6.31l-1.22,1.24c0-.3,0-.68.06-1.1a.38.38,0,0,0-.31-.42.35.35,0,0,0-.36.37c0,.27,0,.51,0,.73l-.71-1.48c.06-3,0-5,0-5.6l1.12-.91a.43.43,0,0,0,0,.17c0,.52,0,1.2-.08,2a.38.38,0,0,0,.31.42m-1.59-2.25-.34-.37c.67-2.3,1.27-4.45,1.68-5.9.06,2.44.08,4.51.08,5.11ZM83.43,62.38a.35.35,0,0,0-.38.33c0,.24-.06.48-.1.73L81.32,65a26.43,26.43,0,0,0,.24-2.85,21.77,21.77,0,0,0,.83-2.06l.83,1a.08.08,0,0,0,0,0v0a.39.39,0,0,0,.28.45h0a.35.35,0,0,0,.33-.34l.09-.71,1.17-1.66c0,1.92-.15,4.18-.31,6.68L83.62,63.5l.09-.67a.38.38,0,0,0-.28-.45m.71-3.11a.37.37,0,0,0-.29-.41.35.35,0,0,0-.38.34c0,.34-.07.69-.11,1l-.73-.87c.35-1,.73-2.22,1.13-3.49,0,.53-.07,1.12-.13,1.75a.38.38,0,0,0,.3.43h0a.35.35,0,0,0,.33-.35c.07-.72.12-1.39.15-2a.37.37,0,0,0-.32-.41.28.28,0,0,0-.21.07l.27-.87a.37.37,0,0,0,.31-.39c0-.19,0-.37,0-.54,0,0,0,0,0,0L84.94,52l.24.26c0,.54.07,2.54,0,5.55Zm2.43-15.19c-.71,2.56-3,10.81-4.55,15.24v0a22,22,0,0,1-.91,2.34,12.84,12.84,0,0,1-4-.81,12.25,12.25,0,0,0-2.58-.71h0a17.65,17.65,0,0,0-2-.24c-.35,0-.72,0-1.11,0a10.72,10.72,0,0,0-3,.38l-.06,0a4.75,4.75,0,0,0-.49.17l4-14c.51-.4,3.3-2.5,5-2.09s7.17.91,9.76-.28M74,63.38l-2.63,2.41-2.49-5a14.24,14.24,0,0,1,5.29,0A20.71,20.71,0,0,0,74,63.38m.58,0a21.94,21.94,0,0,1,.17-2.53,12.27,12.27,0,0,1,2.19.62,9.75,9.75,0,0,0,2,.59c0,.33,0,.66,0,.87l-2.81,2.38ZM79.49,63a7.77,7.77,0,0,1,0-.8,13.43,13.43,0,0,0,1.51.16c0,.67-.11,1.56-.24,2.59ZM71.18,46.34,67.11,60.78a1.64,1.64,0,0,1-.77.07c-.14,0-.45-.1-.84-.2a31.14,31.14,0,0,0-4.73-.88l.21-.29a6.11,6.11,0,0,0,1.44.16,4,4,0,0,0,2.14-.43,1.44,1.44,0,0,0,.25-1,2.44,2.44,0,0,1,0-.28,2.75,2.75,0,0,0,.65-1.15.57.57,0,0,0,0-.26,12.42,12.42,0,0,1,.06-1.43,3.23,3.23,0,0,0,1-.54,1.84,1.84,0,0,0,0-1.94,14.63,14.63,0,0,1-.8-2c.25-2.59,0-3.79-1.22-5.08a5.19,5.19,0,0,0-2.58-1.24l.07,0c3.65-1,6.93-.27,9.26,2.07M59.85,59.09c-.23-.65-1.33-1.11-2.63-1.61l-.27-.1a1.54,1.54,0,0,0-.05-.87.85.85,0,0,0-.57-.52,1.5,1.5,0,0,0-1.37.17.39.39,0,0,0-.07.48.27.27,0,0,0,.4.09,1.07,1.07,0,0,1,.9-.07.23.23,0,0,1,.18.15.66.66,0,0,1,0,.37,3.44,3.44,0,0,0-1.71.35,9.93,9.93,0,0,1-1.14.35,2,2,0,0,1-.77,0h0l-.21-.07h0a3.75,3.75,0,0,1-1-.51h0l0,0h0l0,0,0-.14a4.84,4.84,0,0,1,0-.62h.3c.17,0,.72.07.72-.17s-.42-.4-.58-.44-.37-.31,0-.79a1,1,0,0,0,.13-1.18c-.08-.18-.84-1.12-1.37-1.15a.85.85,0,0,0-.29,0c-.21-.73-.43-1.49-.69-2.26a21.57,21.57,0,0,0,4.36.53,20,20,0,0,0,2.71-.23,23.63,23.63,0,0,0,4.47-1c0,.51,0,1.05.06,1.59a29.49,29.49,0,0,1-.21,6.48,4.67,4.67,0,0,1-.5,1l0,0a10.08,10.08,0,0,1-.71.94h0l-.36.41.07-.14h0a3.22,3.22,0,0,0,.21-.45.8.8,0,0,0,0-.57m.35,8.29a.32.32,0,0,0-.44.2.44.44,0,0,0,.15.51l-4.73-.25-4.82-3.45h0c-.15-.12-4.42-3.36-9.1-7.81l.13-2.12,3.77,1.31h0c.38.44.79.9,1.22,1.37a.32.32,0,0,0,.23.1.31.31,0,0,0,.25-.13.45.45,0,0,0,0-.55c-.4-.43-.77-.84-1.12-1.25L46.11,53c1,1.07,2.32,2.35,3.94,3.8.32.3.66.59,1,.88l0,0,.09.08,0,0h0l.74.65L53.79,60h0c2.63,2.2,4.87,4,5.24,4.25l1.85,3.44-.68-.35m-9.7,1.79a.3.3,0,0,0-.48,0,.47.47,0,0,0-.05.43L45.27,68c-.47-.51-4.23-4.51-7.78-8.39L38.06,57h2.73A116.25,116.25,0,0,0,50,64.89l.74,4.49-.19-.21M32.06,58.54a.3.3,0,0,0-.32.24L30.57,63.3c-1.59-2.07-3.11-4.19-4.35-6.09a24.7,24.7,0,0,1-2.57-5.67l2.05-1.68a.43.43,0,0,0,0,.45c.24.42.58,1,1,1.6a.29.29,0,0,0,.26.16.32.32,0,0,0,.21-.09.45.45,0,0,0,.06-.55q-.58-.87-.93-1.47l3.15.6a21,21,0,0,0,1.19,2.14c.64.94,3,3.63,5.64,6.52ZM27.85,41.77c.12.31.3.75.53,1.31a.34.34,0,0,0,.3.21.28.28,0,0,0,.15,0,.43.43,0,0,0,.15-.53c-.33-.76-.53-1.32-.63-1.58l.5-.64a20.36,20.36,0,0,0,2.89,6.16l-.47.68-.13-.23a.3.3,0,0,0-.46-.11.44.44,0,0,0-.1.55c.08.14.16.29.25.43l-1.15,1.66a32.9,32.9,0,0,1-2.48-7Zm3.26,10.5a18.08,18.08,0,0,1-1.12-2l1.18-1.71.37.62a.33.33,0,0,0,.27.16.27.27,0,0,0,.2-.08.44.44,0,0,0,.07-.55c-.16-.25-.31-.52-.47-.78l.51-.73a62.58,62.58,0,0,0,8,9.13H38c-.38-.38-.76-.77-1.12-1.17a.3.3,0,0,0-.47,0,.45.45,0,0,0,0,.56c.35.38.71.75,1.06,1.11L37,59.06c-2.74-3-5.26-5.84-5.9-6.79m4.35-4.68a.29.29,0,0,0,.23-.08.36.36,0,0,0,.1-.25l.09-2.39c3.17,3.61,6.9,8,8.5,9.91l-3-1.05h0l-.71-.86a.3.3,0,0,0-.47,0,.42.42,0,0,0,0,.55l.56.68.09.1-.11,1.85a65.54,65.54,0,0,1-7.88-8.92Zm3-3.05c.13.22.46.77.91,1.5a.32.32,0,0,0,.27.16.27.27,0,0,0,.2-.08.44.44,0,0,0,.07-.55l-.62-1,1.51.06a32,32,0,0,0,4.81,7.82l-.11.7c-.28-.27-.59-.59-.91-1a.3.3,0,0,0-.47,0,.44.44,0,0,0,0,.56A16.74,16.74,0,0,0,45.34,54l-.13.78c-1.26-1.5-5.37-6.36-8.84-10.33Zm18.6,16.1-.25-.11a.86.86,0,0,0-1,.36l-1.35-1.13a5.22,5.22,0,0,1,1.1,0H56a12.72,12.72,0,0,1,2.62.58l.17.06a1.18,1.18,0,0,1-1.7.27m1.25.87c-.35.32-.65.57-.82.71l-1.15-.93a.29.29,0,0,1,.3-.1l.2.09a2,2,0,0,0,1.47.23m1.19,2.34-.09-.1s-.55-.42-1.4-1.11l.66-.59a1.71,1.71,0,0,1,.47.68,9.19,9.19,0,0,0,.38,1.18ZM59,59.71l-.23-.07A13.62,13.62,0,0,0,56,59H55.6a2.64,2.64,0,0,0-1.68.27l-.84-.71a2.38,2.38,0,0,0,.54,0,7.2,7.2,0,0,0,1.22-.38,2.5,2.5,0,0,1,1.64-.26l.56.22c.54.21,2.2.84,2.27,1.21a2.71,2.71,0,0,1-.2.42L59,59.71M57.61,47.43a.28.28,0,0,0-.36.21.36.36,0,0,0,.18.44h0c.42.14.58.29.61.35a1.32,1.32,0,0,1-.2.39,1,1,0,0,0-.18.94.85.85,0,0,1,.08.17l-1,.16-.25,0V46.94a.31.31,0,0,1,.28-.33h1.3a4.78,4.78,0,0,0,2.77-.54.51.51,0,0,0,.15-.22l0,.1h0c0,.16.13,1.44.21,3.13a14.59,14.59,0,0,1-2.85.75s0-.07-.1-.18,0-.12-.08-.19a1.64,1.64,0,0,1,.12-.22,1.89,1.89,0,0,0,.31-.67c.06-.34-.07-.82-1-1.14M51,50c-.56-.27-.12-1.24.08-1.73s.61-1.12.95-1.12.23.69.23,1.49-.22,1.39-.85,1.42L51,50m5.17-6.25c0-.74.15-1.35.32-1.35s.32.61.32,1.35-.14,1.35-.32,1.35-.32-.61-.32-1.35m-1.09,6.45H53.54a.28.28,0,0,1-.22-.4l.78-2.34c.09-.26.4-.28.48,0l.77,2.33a.32.32,0,0,1-.26.43m.12-5.83a.69.69,0,0,1-.62.73H51.87a.37.37,0,0,1-.33-.4V43.16a.69.69,0,0,1,.62-.73h2.43a.69.69,0,0,1,.62.73Zm-5.52-2c.18,0,.32.61.32,1.35s-.14,1.35-.32,1.35-.32-.61-.32-1.35.14-1.35.32-1.35M64,46.05c.93,1,1.3,1.91,1,4.57a.5.5,0,0,0,0,.17A16.85,16.85,0,0,0,66,53a1.31,1.31,0,0,1,.14,1,2.6,2.6,0,0,1-.9.44.31.31,0,0,0-.27.31,7.67,7.67,0,0,0-.07,2,2.87,2.87,0,0,1-.45.68c-.19.17-.19.46-.2.77a1.61,1.61,0,0,1,0,.47,5.6,5.6,0,0,1-2.83.18,3.73,3.73,0,0,0,.33-.75c.67-2.13,0-11.92-.07-12.34a4.08,4.08,0,0,0-.45-.91A5.45,5.45,0,0,1,64,46.05m-15.19.56a.57.57,0,0,1,.44.22.8.8,0,0,1,.18.52v2.27a18.62,18.62,0,0,0-3.58-6.56A6.68,6.68,0,0,1,48,42.34c-.1,1.15-.28,4.27.85,4.27M49,50.12a.09.09,0,0,0,0,.05c.35,1,.66,2,.92,3,.38,1.38.65,2.59.8,3.37l-.34-.31c-1.82-1.64-3.26-3-4.28-4.17a34.56,34.56,0,0,1-6-10.71,12.34,12.34,0,0,1,4.3,1.37,5.85,5.85,0,0,1,.75.54l0,0,.06.05c1.57,1.43,2.82,4.09,3.75,6.77m-8.53-6.2-4.74-.17c-1.07-1.22-2.06-2.31-2.86-3.16,1.09.18,2.3.28,3.53.38,1,.08,2.05.17,3.06.3.11.32.45,1.31,1,2.65M24.1,40.5c0,.4.08.8.12,1.22a.36.36,0,0,0,.33.36h0a.39.39,0,0,0,.3-.43l-.09-.9,1.83,1.95a33.33,33.33,0,0,0,2.46,7.1l-3.4-.64a.23.23,0,0,0-.21.05l-2,1.68a33.18,33.18,0,0,1-.84-3.44,28.55,28.55,0,0,1-.49-5ZM20.29,51.39a.45.45,0,0,0,0,.23c.2.56.43,1.17.68,1.82a.34.34,0,0,0,.31.23.25.25,0,0,0,.14,0,.41.41,0,0,0,.16-.52c-.25-.64-.48-1.24-.67-1.79l0-.06,2.18.46a25.68,25.68,0,0,0,2.69,5.91c1.16,1.79,2.58,3.77,4.06,5.73l-4-1.26c-.24-.44-.49-.9-.74-1.38a.31.31,0,0,0-.46-.13.43.43,0,0,0-.11.54c.24.47.48.91.72,1.33l-1.43,3.83a25.54,25.54,0,0,1-3.61-7.5c-.47-1.89-.92-3.82-1.3-5.76ZM34.34,78.73A82.74,82.74,0,0,1,24.17,66.91l1.53-4.12,4.84,1.5c3.89,5.06,8,9.76,8.62,10.52l-.08,2.56a.61.61,0,0,0,0,.14l0,1.59L39,79a.31.31,0,0,0-.47.08.43.43,0,0,0-.06.22Zm5.28-4.35c-.45-.52-4.61-5.31-8.6-10.49l1.11-4.25.38.49a.31.31,0,0,0,.24.13.37.37,0,0,0,.23-.1.44.44,0,0,0,0-.56l-.18-.24L37,60c3.69,4,7.61,8.2,7.9,8.51h0l3.68,3.9,1.46,5-.46-.33a.31.31,0,0,0-.46.13.5.5,0,0,0,0,.36l-4.67-.94ZM30,92.68a8.26,8.26,0,0,1,.22-1l.11-.35c.14,0,.2,0,.23,0a.64.64,0,0,1,.2.27A8,8,0,0,0,30,92.68m4.37,5.4a1.65,1.65,0,0,1,.09.43A3.34,3.34,0,0,1,33,96.83a5.92,5.92,0,0,1-.51-3.75,1.92,1.92,0,0,1,2.42.72,5.13,5.13,0,0,0-.59,4.28m6.14-.64a3.46,3.46,0,0,1-2.7-.79,2.14,2.14,0,0,1,1.37-1.85v0a4.53,4.53,0,0,0,1.33,2.61M39.63,93a.29.29,0,0,0-.12.1,2.53,2.53,0,0,0-.34,1,2.73,2.73,0,0,0-1.89,2.06,4.63,4.63,0,0,1-.71-3.45.37.37,0,0,0-.13-.37.26.26,0,0,0-.33,0,7,7,0,0,0-.8.92,2.44,2.44,0,0,0-2.58-1,7.2,7.2,0,0,1,.81-1.62.38.38,0,0,0,0-.36.27.27,0,0,0-.25-.2,3.31,3.31,0,0,0-2.13,1,1.1,1.1,0,0,0-.4-.43l-.19-.07a3.87,3.87,0,0,1,2.29-2.11,9.1,9.1,0,0,1,6.76.1.34.34,0,0,0,.2,0c.27-.13,2.51-1.23,3.18-2.48a3.89,3.89,0,0,0,1.12.1.88.88,0,0,0,.31.35,1.13,1.13,0,0,0,.82.08,1.3,1.3,0,0,0,.19.52,1.72,1.72,0,0,0,.71.62A45.23,45.23,0,0,1,39.63,93m7.12-5.62a1.49,1.49,0,0,1-.81-.52.85.85,0,0,1-.09-.51.37.37,0,0,0-.1-.32.26.26,0,0,0-.29-.06c-.16.08-.55.19-.73.07s-.08-.06-.1-.17a.3.3,0,0,0-.32-.26A3,3,0,0,1,43,85.43h0a.36.36,0,0,1-.12-.08,17.14,17.14,0,0,0,3.49-4.25l1.13.16.37.88a.29.29,0,0,0,.26.19h.5l.48,1a.27.27,0,0,0,.25.17h.82l.13.64c-1,.92-2.23,2.05-3.53,3.2m-.61,6.32h.07l-.13.42a.43.43,0,0,0,.2.51.25.25,0,0,0,.12,0,.34.34,0,0,0,.31-.26l.22-.69h.31L46,100.56l-.72-1.69a.41.41,0,0,0-.22-.36.29.29,0,0,0-.33.07L43.47,99Zm-1.33,13.54-2.58,1.57v-.05a.4.4,0,0,0-.2-.5.31.31,0,0,0-.42.23l-.11.34-1.69-2.38L43,99.91l1.39-.5-.35,1.13a.42.42,0,0,0,.2.5l.11,0a.35.35,0,0,0,.32-.26l.32-1,.79,1.85Zm6,0-3.1,2.46,0-.12a.39.39,0,0,0-.27-.45.34.34,0,0,0-.39.32l0,.2-1.65-2.32,1-5.52,2-1.15-.06.4a.38.38,0,0,0,.27.46h.06a.35.35,0,0,0,.32-.33l.09-.56,2,1.68Zm-1.63-7.35.09-.6a.39.39,0,0,0-.27-.45.34.34,0,0,0-.39.32l-.1.66-2,1.13,1.33-7.3h1.56l-.08.55a.39.39,0,0,0,.27.46h0a.35.35,0,0,0,.33-.33l.11-.69h1.5l-.47,7.87Zm5.26,10.22V110a.34.34,0,1,0-.67,0v.11l-2.37-2.81.32-5,2.05-1.24v.25a.34.34,0,1,0,.67,0v-.25l2.08,1.26.3,4.94Zm-.33-15.43a.36.36,0,0,0,.33-.39v-.64H56l.47,7.92-2-1.23V99.4a.34.34,0,1,0-.67,0v.93l-2,1.21.5-7.89h1.5v.64a.36.36,0,0,0,.34.39m2.52-1H58.1l.1.69a.36.36,0,0,0,.33.33h.06a.4.4,0,0,0,.27-.46l-.08-.55h1.65L61.76,101,59.7,99.82l-.1-.66a.33.33,0,0,0-.38-.32.38.38,0,0,0-.27.45l.08.59-1.9,1.58Zm4.57,16.13-.05-.33a.34.34,0,0,0-.39-.32.39.39,0,0,0-.27.45v.06l-3-2.39-.32-5,2-1.63.08.57a.36.36,0,0,0,.33.33h.06a.4.4,0,0,0,.27-.46l-.06-.41,2.09,1.17,1,5.53Zm7.3-3.36-1.76,2.47-.14-.45a.31.31,0,0,0-.43-.23.41.41,0,0,0-.2.5l-2.47-1.5-1-5.57.71-1.82.31,1a.34.34,0,0,0,.31.26.27.27,0,0,0,.12,0,.4.4,0,0,0,.19-.5l-.34-1.12,1.51.58Zm-3.63-7.31-1.38-.53a.29.29,0,0,0-.33-.07.38.38,0,0,0-.22.36l-.64,1.64-1.23-6.86h.22l.22.69a.34.34,0,0,0,.31.26.25.25,0,0,0,.12,0,.43.43,0,0,0,.2-.51L62,93.65h.17Zm-2.83-7V93H52.1l-.07,0a.23.23,0,0,0-.12,0H47.63a.25.25,0,0,0-.12,0H46.17v-.85H62Zm-1.15-1.6v.91H47.33v-.91H60.89ZM59.6,88.75v1.07h-11V88.75h11Zm-2.35-1.61H58v.92H50.18v-.92h7.07Zm-5-2.85h4.12v.87H51.79v-.87Zm-.49-.69.2-.19v.19Zm1-.59v.59H52.6v-2h3v2h-.24V82Zm3.36.59v-.13l.14.13Zm.51,2.25H57v.6h-5.7v-.6h5.45Zm.77-2.78-.12.6L56.2,82.59V81.27a.33.33,0,0,0-.29-.35H52.3a.33.33,0,0,0-.29.35v1.26l-1.22,1.14-.12-.6a.31.31,0,0,0-.29-.27H49.5l-.47-1a.3.3,0,0,0-.26-.18h-.49l-.35-.85a.29.29,0,0,0-.23-.19h-.06V78.44a.33.33,0,0,0-.3-.35.33.33,0,0,0-.29.35V80.5l-.85-.12h-.07l-.07,0h0a3.31,3.31,0,0,1-1.63.33c-.15,0-.2-.38-.25-.81a1.74,1.74,0,0,0-.27-.94c-.27-.32-.6-.12-.79,0a.68.68,0,0,1-.92,0c-.31-.23-.27-.5-.11-1.07.1-.39.23-.84-.05-1.16s-.67-.2-.93,0a2.39,2.39,0,0,1-1.07.41,1.21,1.21,0,0,1-.38,0l.07-2,4.53,2.13.06,0,6.25,1.25a.25.25,0,0,0,.27-.11.41.41,0,0,0,.06-.34l-1.76-6a.25.25,0,0,0-.08-.14l-2.78-3,4.64,1.62a.34.34,0,0,0,.24.12l.13,0,0,0,.08-.06a.4.4,0,0,0,.09-.32l-.82-5,4.31,3.1a.35.35,0,0,0,.13,0l6.4.33h0a.25.25,0,0,0,.12,0,.33.33,0,0,0,.16,0,.24.24,0,0,0,.14-.14.39.39,0,0,0,0-.3.38.38,0,0,0-.09-.18L60,64.74a1.28,1.28,0,0,0,.72.56h.16a1.11,1.11,0,0,0,.86-.55l.14.11c.2.13.22.26.25.57a1.47,1.47,0,0,0,1,1.45c.73.29,1.95.79,1.84,1.2s-1.6.65-2.15.73l-.16,0c-1,.15-3.35.62-3.49,1.73A8.15,8.15,0,0,1,58.48,73a.59.59,0,0,0-.18.36,2.28,2.28,0,0,0,.59,1.33,1.59,1.59,0,0,1,.11.16,1,1,0,0,1,0,.58c-.12.4.27.76.86,1.26l.07,0a3.26,3.26,0,0,1-.18.46,5.13,5.13,0,0,0,.8,2.77,2.62,2.62,0,0,1,.21.23l.24.28-.51.07a.29.29,0,0,0-.23.19l-.36.85h-.48a.29.29,0,0,0-.26.18l-.47,1h-.89a.31.31,0,0,0-.28.27M67.66,97.44A4.59,4.59,0,0,0,69,94.83v0a2.14,2.14,0,0,1,1.37,1.85,3.47,3.47,0,0,1-2.7.79m8-4.36a5.92,5.92,0,0,1-.51,3.75,3.34,3.34,0,0,1-1.41,1.68,1.65,1.65,0,0,1,.09-.43,5.12,5.12,0,0,0-.6-4.28,1.93,1.93,0,0,1,2.43-.72m2.22-1.71a8.31,8.31,0,0,1,.33,1.33,9.33,9.33,0,0,0-.77-1.07.51.51,0,0,1,.2-.27s.09,0,.24,0M68.3,88.64a.31.31,0,0,0,.19,0,9.12,9.12,0,0,1,6.77-.1,3.9,3.9,0,0,1,2.29,2.11.84.84,0,0,0-.19.07,1.1,1.1,0,0,0-.4.43,3.33,3.33,0,0,0-2.13-1,.3.3,0,0,0-.26.2.38.38,0,0,0,0,.36,7.2,7.2,0,0,1,.81,1.62,2.44,2.44,0,0,0-2.58,1,7,7,0,0,0-.8-.92.27.27,0,0,0-.34,0,.38.38,0,0,0-.12.37,4.78,4.78,0,0,1-.71,3.45A2.75,2.75,0,0,0,69,94.08a2.72,2.72,0,0,0-.34-1,.29.29,0,0,0-.12-.1A44.75,44.75,0,0,1,62,87.84a1.77,1.77,0,0,0,.72-.63,1.47,1.47,0,0,0,.19-.52,1.13,1.13,0,0,0,.82-.08,1,1,0,0,0,.31-.35,3.89,3.89,0,0,0,1.12-.1c.67,1.25,2.91,2.35,3.18,2.48m-3-3.3a.41.41,0,0,1-.13.08h0a3.07,3.07,0,0,1-1.33.13.28.28,0,0,0-.31.26c0,.11-.06.15-.1.17a.93.93,0,0,1-.73-.07.26.26,0,0,0-.29.06.41.41,0,0,0-.11.32.73.73,0,0,1-.09.51,1.39,1.39,0,0,1-.81.52c-1.3-1.15-2.54-2.29-3.53-3.19l.13-.65h.83a.28.28,0,0,0,.25-.17l.48-1H60a.29.29,0,0,0,.27-.19l.37-.88,1.13-.16a16.92,16.92,0,0,0,3.49,4.25m-3.33-5c-.31,0-.6-.35-.84-.63a2.44,2.44,0,0,0-.26-.28,7,7,0,0,1-.63-1.94c.2-.41.37-.93.11-1.2l-.19-.17a4.75,4.75,0,0,1-.62-.58,1.54,1.54,0,0,0-.06-1.09s-.08-.11-.13-.2a3.56,3.56,0,0,1-.46-.76,8.75,8.75,0,0,0,.86-2.85c0-.34,1.28-.89,3-1.15l.16,0c1.31-.2,2.42-.42,2.63-1.2.3-1.06-1-1.58-2.2-2.07-.59-.24-.61-.49-.64-.87a1.29,1.29,0,0,0-.55-1.11c-.64-.41-1.64-2.8-1.73-3.12a.29.29,0,0,0-.31-.27.35.35,0,0,0-.27.38,12.22,12.22,0,0,0,1.47,3c-.15.2-.32.37-.49.34-.49-.1-1-1.51-1.1-2.06a2.15,2.15,0,0,0-.58-1c.36-.35.75-.75,1.11-1.17h.34a4.65,4.65,0,0,0,2.72,1.63c.53,0,.56.06.92.49.07.09.16.2.27.32a2.14,2.14,0,0,1,.61,1.69v.12a1.84,1.84,0,0,0,.54,1.2,1.35,1.35,0,0,0,1,.39c.49-.07.75-.62,1-1.15.1-.2.34-.21.65-.2h.23a.29.29,0,0,1,.21.15.78.78,0,0,1,0,.66c-.1.31-.23.33-.46.36a.66.66,0,0,0-.67.55,2.37,2.37,0,0,1-.33.62,2.12,2.12,0,0,0,0,2.79,2.67,2.67,0,0,1,.22.39,7.07,7.07,0,0,1,.43,2.11c0,.25-.32.46-.66.69l-.36.26A4.34,4.34,0,0,0,66,74.72a3.68,3.68,0,0,1-.36.56,3.15,3.15,0,0,1-.29.13A2,2,0,0,0,63.85,77a2,2,0,0,1-.75,1.32.35.35,0,0,0-.15.31c0,1.67-.88,1.79-1,1.8m6.12-3.21A2.5,2.5,0,0,1,67,76.76c-.26-.17-.58-.37-.93,0a1.25,1.25,0,0,0,0,1.16c.16.57.2.84-.11,1.07A.68.68,0,0,1,65,79c-.2-.13-.53-.33-.8,0a1.83,1.83,0,0,0-.26.94c-.05.43-.1.76-.26.81a1.89,1.89,0,0,1-.85-.07,2.48,2.48,0,0,0,.69-1.91A2.67,2.67,0,0,0,64.43,77c.06-.53.55-.77,1.09-1a1.5,1.5,0,0,0,.44-.22,2.72,2.72,0,0,0,.5-.73,4,4,0,0,1,.72-1l.34-.24c.43-.3.92-.64.94-1.26A7.38,7.38,0,0,0,68,70.13a4.67,4.67,0,0,0-.27-.49,1.73,1.73,0,0,1-.38-1,2,2,0,0,1,.42-1,2.6,2.6,0,0,0,.44-.86h0a.61.61,0,0,1,.17,0,1,1,0,0,0,.93-.78,1.51,1.51,0,0,0-.07-1.33.8.8,0,0,0-.72-.42h-.18a1.09,1.09,0,0,0-1.17.56c-.19.39-.36.76-.56.79a.8.8,0,0,1-.57-.24,1.11,1.11,0,0,1-.33-.73v-.12a2.78,2.78,0,0,0-.78-2.11l-.27-.31a1.41,1.41,0,0,0-1.3-.7,4.1,4.1,0,0,1-1.8-.85,35.89,35.89,0,0,1,3.86.79c.42.1.72.18.88.2l.33,0a1.9,1.9,0,0,0,.88-.21h0a5.35,5.35,0,0,1,.8-.35L71,66.36,69.08,76.71c0,.12-.2.56-1,.46m6.71-.88c.06.31.13.6.19.88l-.52.56-1.4,1.54-1.28,1.42c0-.23.09-.49.14-.78a.39.39,0,0,0-.26-.46.33.33,0,0,0-.39.3c-.08.41-.15.77-.2,1.06l-1.6-3,.16-.92a.64.64,0,0,1,0-.07l1.87-10.31,2.34-2.13a.38.38,0,0,0,.29.36h0a.36.36,0,0,0,.33-.33l1.19,1.51c-.25,1.17-1.54,7.24-.92,10.39M77,79.39l.09-.55a.4.4,0,0,0-.26-.47.35.35,0,0,0-.39.32c-.06.36-.11.67-.16.94a22.12,22.12,0,0,1-.95-3.5c-.6-3,.73-9.2.93-10.12l2.85-2.4,1.45,2.28c-.46,3.28-1.29,7.65-2,11.37Zm5.18,6.21-2.83,2.59q.08-.41.18-.93a.39.39,0,0,0-.26-.47.32.32,0,0,0-.39.29q-.11.51-.18.9l-1.2-3.07c.31-1.38,2.71-12.28,3.64-18.92l1.63-1.54,0,.2a.4.4,0,0,0,.28.46h0a.35.35,0,0,0,.33-.33c0-.1,0-.2,0-.31l1.3,2.18A143.84,143.84,0,0,1,82.22,85.6m2,.56c.14-.46.28-1,.44-1.64a.42.42,0,0,0-.23-.49.33.33,0,0,0-.42.27c-.17.74-.34,1.36-.49,1.87a.41.41,0,0,0,.2.5s0,0,0,0l-.19.21-.52-2.56a147.8,147.8,0,0,0,2.29-17.59l2.36-2.28c0,.28-.09.6-.15,1a.39.39,0,0,0,.27.46h.06a.37.37,0,0,0,.33-.32c.07-.48.14-.88.19-1.19l1,1.47C89,71.53,88,80.22,86.78,83.49Zm7.84-15.94c0,6.9-.6,12.42-1.63,15.94-1.77,6-4.12,8.07-5.29,8.73l.41-.9a.44.44,0,0,0-.15-.54.32.32,0,0,0-.45.17l-.22.5V90.18l2.5-6.34h0c1.33-3.35,2.28-12.18,2.78-17.91l1.83-1.72c0,.29,0,.59-.07.88a.41.41,0,0,0,.23.41c0,.26,0,.53,0,.81h0a.36.36,0,0,0-.37.35q-.09,1-.21,1.95a.4.4,0,0,0,.29.44h0a.33.33,0,0,0,.3-.21v1.38m-.14-7L90.14,65c.17-2.07.28-3.61.31-4.1l1.39-1.34v1.19s.07,1,.13,2.52m-.74-24.1a3.38,3.38,0,0,0,.33-1,16.51,16.51,0,0,1,.28,3.16v10L90.46,49.9V49c0-1,0-2.82,0-6a17.83,17.83,0,0,0-.61-4.59,7.23,7.23,0,0,0,1,.87.27.27,0,0,0,.4-.11M89,33a8.54,8.54,0,0,1,1.81,2.65h0a5.29,5.29,0,0,1,.1,2.84,6.85,6.85,0,0,1-1.66-2l0,0a16.06,16.06,0,0,0-3.84-5.59A8.6,8.6,0,0,1,89,33m-5-2.47a14.91,14.91,0,0,1,4.87,6.59,11.53,11.53,0,0,1,.1,1.8c-.39,0-1.32-.22-2.1-1.91h0a14.9,14.9,0,0,0-4.91-6.67,13.21,13.21,0,0,1,2,.19m-3.15-.18c.71.32,5.41,4.08,5.75,8.32a12.27,12.27,0,0,1-.24,1.76c-.71-.41-2-1.28-2.06-2.16a7.75,7.75,0,0,0-1-3.89,10,10,0,0,0-4-3.9c.53-.07,1.06-.11,1.57-.13m-3.36.41.56-.1a9.44,9.44,0,0,1,4.75,4.11,8.51,8.51,0,0,1,.78,5.51,7.05,7.05,0,0,0-.08,1.66c-.29,0-.77-.21-1.17-1.18a.28.28,0,0,0-.33-.18,2.23,2.23,0,0,0-1.41,1.1,1.29,1.29,0,0,0-.11.59,2,2,0,0,1-1.06-1.5.33.33,0,0,0-.21-.23.28.28,0,0,0-.27.09,3.39,3.39,0,0,0-.8,1.9,1.58,1.58,0,0,0,.19.78.65.65,0,0,1-.37.12c-.33,0-1-.29-2-2L77,41.28a4.43,4.43,0,0,0,3.3-3v0a5.65,5.65,0,0,0-.12-4.92c-.64-1.06-2-2.23-5.07-1.81-3.41.48-5.11.12-6-.34,1.59.44,4.38.28,8.23-.5m-9.5-8.36a1.29,1.29,0,0,1-.41.16h0a.3.3,0,0,0-.31.09.82.82,0,0,0-.15.63v.14a2,2,0,0,1-.64.11l0,0a.29.29,0,0,0-.36.24.38.38,0,0,0,.23.44h0a1.36,1.36,0,0,1,.38.22c0,.08,0,.14-.07.2a.79.79,0,0,0-.08.61,1.18,1.18,0,0,1,0,.22,2.6,2.6,0,0,0,0,.26l-.19.06a4.15,4.15,0,0,1-3.78-.88,3.4,3.4,0,0,1-.77-1A4.65,4.65,0,0,1,61.34,22a4.75,4.75,0,0,1,1-3.13,3,3,0,0,1,2.37-1.13,7.34,7.34,0,0,1,2.26.35,5.07,5.07,0,0,1,.27,2.78.39.39,0,0,0,0,.26,4,4,0,0,0,.72,1.27m3-2.28a2.3,2.3,0,0,1-1.3,1.43,4.64,4.64,0,0,0,.45-1.88,2.44,2.44,0,0,0,1.09-.42,5,5,0,0,1-.24.87M45.69,10.27c.55,0,1,0,1.44,0,1.87.07,2.55.1,3.75-1.92a2.56,2.56,0,0,1-.12,1.6.39.39,0,0,0,0,.38.27.27,0,0,0,.3.16,3,3,0,0,0,2-1.93,15.85,15.85,0,0,1,.07,1.91.39.39,0,0,0,.17.33.26.26,0,0,0,.32-.07,8.84,8.84,0,0,0,.89-1.14,1.5,1.5,0,0,1,0,.22,1.9,1.9,0,0,1-.62,1.56.37.37,0,0,0-.09.38,22.41,22.41,0,0,1,.72,3.75,3.82,3.82,0,0,0-1.68-.79,3.5,3.5,0,0,0-1.33,0,4,4,0,0,0-2.21,1.32,12.48,12.48,0,0,0-3.13-1l-1.59-.39A3.86,3.86,0,0,1,42.1,12.6a3.52,3.52,0,0,1,3.59-2.33m.36,28.82a16.89,16.89,0,0,1,1.82-3.19,29.08,29.08,0,0,0,1.68-2.43v0h0a.38.38,0,0,0-.08-.45.26.26,0,0,0-.4.06h0v0c-.61.86-1.17,1.66-1.65,2.38-1.76,2.28-3.3,3.39-4.34,3.13a.67.67,0,0,1-.24-.11h0a.11.11,0,0,0,0-.13.07.07,0,0,0-.11,0l0,0c-.06-.26,0-1.35,2.78-4.69.88-.93,1.54-1.72,1.78-2v0h0a.41.41,0,0,0,0-.49.28.28,0,0,0-.4,0h0s-.84.88-1.8,2c-1.57,1.64-3.8,3.69-5.56,4.13-.63.16-.78,0-.78,0h0a.19.19,0,0,1,0-.08l.05,0a.11.11,0,0,0,0-.14l0,0a11.22,11.22,0,0,1,2.09-2.84l0,0a.38.38,0,0,0,.08-.24.33.33,0,0,0-.29-.35.23.23,0,0,0-.11,0l0,0h0a12.14,12.14,0,0,1-2,1.33,6.71,6.71,0,0,1-4,.87h0l.36-.16a.08.08,0,0,0,.07,0h0l.67-.17a.1.1,0,0,0,.07-.12.11.11,0,0,0-.06-.07l.19-.07C38,34.42,41.5,33,43,30.63a10,10,0,0,0,5.84-3.05l1.33,2.34a.27.27,0,0,0,.39.11l2-1.32,1.06,1.5a14.69,14.69,0,0,1-2,4.13l0,0-.31.43a14.43,14.43,0,0,1-5.32,4.3M51.22,20a1.39,1.39,0,0,1-.07-.46,1.33,1.33,0,0,1,.07-.45l0-.07h0a1.11,1.11,0,0,1,.52-.6h0a.89.89,0,0,1,.78,0h0a1.12,1.12,0,0,1,.54.64v0a1.44,1.44,0,0,1,.08.46,1.39,1.39,0,0,1-.08.46v0a1.1,1.1,0,0,1-.51.62l-.06,0a.87.87,0,0,1-.77,0h0a1.19,1.19,0,0,1-.54-.64Zm1.57,3.68-.07-2.33.05,0,.06,0,.07,0L54.24,23a3.23,3.23,0,0,1-1.45.71m.11-5.86-.07,0,0,0-.06,0,.07-2.33a3.34,3.34,0,0,1,1.45.71Zm-1.32-2.42.08,2.33-.07,0,0,0-.07,0-1.35-1.71a3.34,3.34,0,0,1,1.45-.71m-2.3,1.72,1.45,1.58,0,.09,0,.06a.19.19,0,0,1,0,.07l-2-.09a4.42,4.42,0,0,1,.6-1.71m1.37,3.05,0,.07a.13.13,0,0,0,0,.06s0,.05,0,.08L49.28,22a4.59,4.59,0,0,1-.6-1.71Zm.83,1.1.07,0,0,0s0,0,.07,0l-.08,2.33A3.34,3.34,0,0,1,50.13,23Zm-.12,3.06.16,0a3.72,3.72,0,0,0,1.33,0,3.84,3.84,0,0,0,1.51-.66,16.67,16.67,0,0,1,0,2.4l-1.13-1.21a.27.27,0,0,0-.23-.08.27.27,0,0,0-.2.13l-1,1.46-1-1.26c.24-.35.41-.64.51-.82m.28,2.84a.28.28,0,0,0,.22.11h0a.29.29,0,0,0,.22-.13l1-1.49L54.3,27c0,.33-.07.66-.13,1h0c-.08.49-.18,1-.29,1.42l-1-1.38a.26.26,0,0,0-.36-.08l-2,1.3-1.22-2.15a15.34,15.34,0,0,0,1.14-1.4ZM55.1,22l-1.45-1.59,0-.08s0,0,0-.06,0-.05,0-.07l2,.09A4.78,4.78,0,0,1,55.1,22M53.72,19s0-.05,0-.08,0,0,0-.06l0-.07,1.45-1.59a4.78,4.78,0,0,1,.6,1.71Zm-15,4.9a.76.76,0,0,1-.24-.12,1.2,1.2,0,0,1,.23-.63l.06-.1a7.84,7.84,0,0,0,.46-2.45c0-.11,0-.21,0-.31v-.12a.37.37,0,0,0,0-.11v0a2.62,2.62,0,0,0-.09-.38,4.41,4.41,0,0,1,.22-.43,8.41,8.41,0,0,1,1.26-1.84,1.08,1.08,0,0,1,1.31-.21,4.07,4.07,0,0,1,2,1.26l-.38.34a18.43,18.43,0,0,1,.3,2.72,3.4,3.4,0,0,1-.55,1.86c-.14.13-.2.17-.41.06a10.85,10.85,0,0,1-1.26-.87c-.16-.18-.23,0-.25.16s-.06,1.44-.52,1.75a2.82,2.82,0,0,0-.94,1.22c0,.1.24.17.8.24a2.81,2.81,0,0,1,1.42.45c.44.31.75.44.54.57a5.11,5.11,0,0,1-2.25.51c-.59,0-.83.05-1-.2a6.5,6.5,0,0,0,.06-.87c0-.53-.07-.84-.24-1a.52.52,0,0,1-.13-.29,2.18,2.18,0,0,0,0-.85.51.51,0,0,0-.36-.34m-3.3,2.54A9.33,9.33,0,0,0,38.82,28l.09,0h0a8.94,8.94,0,0,0,1.94.21c4.22,0,6-4.09,6-6.28a7.3,7.3,0,0,0-2-4.5,5.5,5.5,0,0,0-5-1.65,5.63,5.63,0,0,0-1.44.41c-.11,0-.22.1-.35.16-2.43,1.23-3.77,3.85-4.37,5.35A7.33,7.33,0,0,1,35.6,16a9.17,9.17,0,0,1,6-3,4.43,4.43,0,0,0,2.85,2.39c.55.15,1.09.27,1.61.4a14.57,14.57,0,0,1,2.83.83l-.07.12a5.4,5.4,0,0,0-.74,2.08,6.81,6.81,0,0,0-.05.78,6.53,6.53,0,0,0,.05.78,5.29,5.29,0,0,0,.74,2.08,4.36,4.36,0,0,0,.93,1.11,4,4,0,0,0,1,.62c-.11.2-.27.45-.47.75l0,0a.24.24,0,0,0-.07.12,16.72,16.72,0,0,1-1.37,1.68l0,0a.48.48,0,0,0-.09.11A9.25,9.25,0,0,1,42.08,30a8.28,8.28,0,0,1-2.77-.46h0a7.76,7.76,0,0,1-3.89-3.15M38.53,32a3.6,3.6,0,0,0,.91-1.68,8.88,8.88,0,0,0,2.64.39h.15c-1.58,1.92-4.68,3.17-6.59,3.94-1.56.63-2.08.84-2,1.33s.44.5.86.57a4.4,4.4,0,0,0,.8.07A8,8,0,0,0,39,35.47c-.6.85-1,1.65-.76,2.14A.74.74,0,0,0,39,38a2.85,2.85,0,0,0,.67-.1A9.46,9.46,0,0,0,43,36c-1,1.65-.86,2.26-.79,2.5a1,1,0,0,0,.77.75,2.2,2.2,0,0,0,.44.05,3.93,3.93,0,0,0,2.4-1.15c-.5,1-.43,1.32-.3,1.53a.4.4,0,0,0,.34.19.54.54,0,0,0,.22-.05,15.31,15.31,0,0,0,5.29-4,30.25,30.25,0,0,1-.92,3.45.37.37,0,0,0,.16.45.27.27,0,0,0,.12,0,.32.32,0,0,0,.27-.22,37.27,37.27,0,0,0,1.1-4.34v0l0-.12a11.61,11.61,0,0,0,3.22-1.75c.57-.5-.05-1-.31-1.29s-.13-1.16-.13-1.43a1.94,1.94,0,0,0-.26-1.21.56.56,0,0,1-.1-.15c.08-.36.15-.72.2-1.08v0q.09-.63.15-1.2h0a17,17,0,0,0,0-3.63,5.29,5.29,0,0,0,.65-.83,5.39,5.39,0,0,0,.73-2.08c0-.15,0-.29,0-.43A3.56,3.56,0,0,0,58,18.79a1.79,1.79,0,0,0,.41-1.65c-.07-.25-.81-.44-1.06-.54s-.37-.1-.77.26a3.41,3.41,0,0,0-.6.81,5.3,5.3,0,0,0-.46-1,4.25,4.25,0,0,0-.43-.59,15,15,0,0,0-.52-3.65,11.36,11.36,0,0,0,3.89-4.25c.4,1.25,1.24,3.4,2.35,3.4h.44c1.21,0,3.46,0,4,.51l.07.07a5,5,0,0,0,3.18,1.63l.1,0a4.31,4.31,0,0,0,3.23,3.35,2.79,2.79,0,0,1-.52,1,2.37,2.37,0,0,1-1.45.74A7.8,7.8,0,0,0,64.67,17a3.5,3.5,0,0,0-2.8,1.34A5.56,5.56,0,0,0,60.75,22s0,.06,0,.08a3.26,3.26,0,0,0-1,.89,3,3,0,0,0-.33,1.85,1.43,1.43,0,0,0,1.2,1.28c.86.12,1.17.09,1.34-.12s.34-.2.42-.4a4.62,4.62,0,0,0,4,.83A3.86,3.86,0,0,0,67,26.2a.13.13,0,0,0,.08,0,5.47,5.47,0,0,0,2.61-2.54,7.55,7.55,0,0,1-.06,4.13,3,3,0,0,1-1.73,1.78h0l-.06.05h0l0,.06h0a.59.59,0,0,0,0,.08h0s0,0,0,0,0,0,0,.05h0a1.89,1.89,0,0,0,.4,1.32c.72.94,2.27,1.38,4.62,1.31a.77.77,0,0,0-.19.28c-.14.44-.35,1.28-.11,1.51s.65.25,1,.74a1,1,0,0,0,1.16.45,1.14,1.14,0,0,0,.74-1c0-.6.42-1.48,0-1.88a1.39,1.39,0,0,1-.25-.3l.17,0c2.17-.3,3.74.22,4.52,1.52A4.85,4.85,0,0,1,79.83,38v0c0,.08-.07.16-.1.23a1.63,1.63,0,0,1-1.36-.36,2.74,2.74,0,0,0-1.68-.62c-.52-.06-.76-.53-1.34-.56s-.92.74-1,1-.13.57-.34.65-1.11.31-1.35,1.05A4.26,4.26,0,0,0,72.57,41c-.72.06-1.46.14-2.22.23a4.7,4.7,0,0,1,.14-.49c.22-.63-.27-1.43-.55-2.15s-.38-.26-.82-.77A1.27,1.27,0,0,0,68,37.34c-.27,0-1,.62-1.6.64a1.13,1.13,0,0,0-1.1.86,6,6,0,0,0,.18,2.68,1.05,1.05,0,0,0,.55.55,34.73,34.73,0,0,0-4,1.32l-.23.1A3.38,3.38,0,0,1,62.43,42c.27-.2-.11-1.09-1.14-.64a2.19,2.19,0,0,1-2.11-.13,1.28,1.28,0,0,0-1.33-.09,1.45,1.45,0,0,0-.49.77,12.7,12.7,0,0,0-4.34-.7c-5.3,0-7.08.91-7.64,1.35a5.13,5.13,0,0,0-.69-.49c-2.31-1.35-5.33-1.59-8.24-1.83A29.28,29.28,0,0,1,32,39.71a1.46,1.46,0,0,0-.39-.1,5.06,5.06,0,0,1-1.93-1,3.11,3.11,0,0,1-1.14-3.4,2.82,2.82,0,0,1,.65-1.08v0l0,0v0h0a2.86,2.86,0,0,1,2.4-.8c3,.38,5.82.74,6.87-1.33m-7.66-.12a23.05,23.05,0,0,0,2.57,1c-.53,0-1.11-.12-1.71-.2a3.38,3.38,0,0,0-2.83,1,1.86,1.86,0,0,1-1.8,0,2.4,2.4,0,0,1-.82-1.29,8.09,8.09,0,0,1,2.93-1.08c.58.22,1.13.45,1.66.68m-6.65-1.64a13.24,13.24,0,0,1,3.76.55,8,8,0,0,0-2.11,1c-1.89.25-2.57-.52-2.8-.93a7.36,7.36,0,0,1,1.15-.6m-1.09,1.63a12.92,12.92,0,0,0-.91,1.07.42.42,0,0,0,0,.55.29.29,0,0,0,.22.11.31.31,0,0,0,.25-.13,14.35,14.35,0,0,1,1.06-1.22,3.33,3.33,0,0,0,1.16.25,9.39,9.39,0,0,0-2.54,4,17.23,17.23,0,0,0-.85,5L20,39.64a.39.39,0,0,0,.08-.22,8,8,0,0,1,.34-1.81.43.43,0,0,0-.2-.51.33.33,0,0,0-.43.24,9.82,9.82,0,0,0-.38,2,.51.51,0,0,0,.06.25l-1.68,1.76c.32-4.81,1.92-8.23,4.75-10.22a2.28,2.28,0,0,0,.57.7M17.46,35A13.32,13.32,0,0,1,22,30.76c-3.17,2.38-4.46,6.29-4.75,10.56L16,39.6a.25.25,0,0,0-.23-.12.25.25,0,0,0-.22.14l-.95,1.5A17.27,17.27,0,0,1,17.46,35m-2.92,7.27L15.33,41c0,.22,0,.47,0,.74a.36.36,0,0,0,.32.4h0A.37.37,0,0,0,16,41.8c0-.42,0-.78,0-1.07l1.16,1.58a47.15,47.15,0,0,0,.92,10l-1.66-.85c-.05-.36-.09-.71-.13-1.07a.34.34,0,0,0-.37-.34.39.39,0,0,0-.29.44c0,.36.08.71.13,1.06l-1.24,1.13Zm0,11.27,1.34-1.22s0,.08,0,.12a.35.35,0,0,0,.33.33h.06a.39.39,0,0,0,.27-.46v0l1.71.88c.44,2.24.94,4.26,1.33,5.82A24.9,24.9,0,0,0,23,66.2l-2.38-1.07c-.26-.45-.51-.93-.75-1.41a.31.31,0,0,0-.46-.15.44.44,0,0,0-.12.54c.23.47.47.92.72,1.36l-1.19,3.26c-2.09-3.06-3.77-6.14-4.23-8.6Zm-.18,8.2a28.65,28.65,0,0,0,3.4,6.59L15.89,67.2a.24.24,0,0,0-.23,0,.3.3,0,0,0-.17.18l-.79,2.15a21.85,21.85,0,0,1-.34-7.76"/><path class="b299c355-b21f-4026-9683-563154654390" d="M61.33,52.78a.32.32,0,0,0-.28-.35A8.65,8.65,0,0,1,58.8,52a3.45,3.45,0,0,0-3.44.88c-.23.24-.38.28-.46.26a1.32,1.32,0,0,0-.25-.52l.16-.08A7.55,7.55,0,0,1,58,51.42a5.8,5.8,0,0,1,2.69.51.28.28,0,0,0,.4-.15.4.4,0,0,0-.13-.47,6.16,6.16,0,0,0-3-.58,8.06,8.06,0,0,0-3.43,1.2,5.15,5.15,0,0,1-1.71.71,1.38,1.38,0,0,1-1.18-.86.27.27,0,0,0-.38-.18.36.36,0,0,0-.15.45,2,2,0,0,0,1.71,1.28,3.05,3.05,0,0,0,1.21-.39.86.86,0,0,1,.27.42.63.63,0,0,0,.17.43,2.64,2.64,0,0,0,1.74.42,2.11,2.11,0,0,1,1.39.65,1.05,1.05,0,0,1,.29.69c0,.73-.3.79-.35.79a.33.33,0,0,0-.29.35.32.32,0,0,0,.29.34c.32,0,.94-.31.94-1.48a1.73,1.73,0,0,0,0-.32h.23A4.56,4.56,0,0,0,60.17,55c1.14-.4,1.16-2.14,1.16-2.21m-5.12.74a2.62,2.62,0,0,1-.56,0l.1-.1a2.89,2.89,0,0,1,1.8-.83,1.34,1.34,0,0,0-.44,1v.1a2.05,2.05,0,0,0-.9-.19m2.73,1a1.38,1.38,0,0,0,.34-.93,1.4,1.4,0,0,0-.24-.8,10.21,10.21,0,0,0,1.68.3c0,.4-.22,1-.72,1.22a4.3,4.3,0,0,1-1.06.21"/><path class="b299c355-b21f-4026-9683-563154654390" d="M39.46,21a.27.27,0,0,0,.4-.11s.18-.29.72-.23a1.18,1.18,0,0,1,.86.65.3.3,0,0,0,.26.17.23.23,0,0,0,.14,0,.38.38,0,0,0,.11-.47,1.79,1.79,0,0,0-1.32-1,1.21,1.21,0,0,0-1.27.55.39.39,0,0,0,.1.48"/><path class="b299c355-b21f-4026-9683-563154654390" d="M65.5,19.73a1.55,1.55,0,0,0-1.11.83.39.39,0,0,0,.12.47.23.23,0,0,0,.14,0,.3.3,0,0,0,.26-.17.86.86,0,0,1,.64-.48c.39,0,.52.14.52.14a.27.27,0,0,0,.4.11.37.37,0,0,0,.09-.47,1,1,0,0,0-1.06-.47"/><path class="b299c355-b21f-4026-9683-563154654390" d="M52.2,71.51a.32.32,0,0,0-.29.35V74a.3.3,0,1,0,.58,0V71.86a.32.32,0,0,0-.29-.35"/><path class="b299c355-b21f-4026-9683-563154654390" d="M52,75.58a.33.33,0,0,0-.29.35v2.12a.32.32,0,0,0,.29.35.33.33,0,0,0,.3-.35V75.93a.33.33,0,0,0-.3-.35"/><path class="b299c355-b21f-4026-9683-563154654390" d="M49.47,79.16a.32.32,0,0,0-.29.34v2.13a.3.3,0,1,0,.59,0V79.5a.32.32,0,0,0-.3-.34"/><path class="b299c355-b21f-4026-9683-563154654390" d="M42.39,87.93l-1.53,1.13a.38.38,0,0,0-.09.48.28.28,0,0,0,.25.16.3.3,0,0,0,.15,0l1.53-1.13a.39.39,0,0,0,.09-.48.27.27,0,0,0-.4-.11"/><path class="b299c355-b21f-4026-9683-563154654390" d="M65.08,88.25a.38.38,0,0,0,.1.47l1.52,1.13a.25.25,0,0,0,.16.06.28.28,0,0,0,.24-.17.37.37,0,0,0-.09-.47l-1.52-1.13a.27.27,0,0,0-.41.11"/><path class="b299c355-b21f-4026-9683-563154654390" d="M67.05,90.29a.38.38,0,0,0,.09.48l1.53,1.13a.27.27,0,0,0,.4-.11.38.38,0,0,0-.09-.48l-1.53-1.13a.27.27,0,0,0-.4.11"/><path class="b299c355-b21f-4026-9683-563154654390" d="M69.13,90.39l1.52,1.13a.27.27,0,0,0,.16.06.29.29,0,0,0,.25-.17.39.39,0,0,0-.09-.47l-1.53-1.13a.26.26,0,0,0-.4.11.37.37,0,0,0,.09.47"/><path class="b299c355-b21f-4026-9683-563154654390" d="M71.91,89.51l1.53,1.13a.3.3,0,0,0,.15,0,.28.28,0,0,0,.25-.16.38.38,0,0,0-.09-.48l-1.52-1.13a.28.28,0,0,0-.41.11.41.41,0,0,0,.09.48"/><path class="b299c355-b21f-4026-9683-563154654390" d="M39.46,89.42l-1.53,1.13a.41.41,0,0,0-.09.48.3.3,0,0,0,.25.16.27.27,0,0,0,.15,0L39.77,90a.38.38,0,0,0,.09-.48.27.27,0,0,0-.4-.11"/><path class="b299c355-b21f-4026-9683-563154654390" d="M39,91.48l-1.52,1.14a.37.37,0,0,0-.09.47.26.26,0,0,0,.24.16.24.24,0,0,0,.16,0l1.53-1.13a.41.41,0,0,0,.09-.48.28.28,0,0,0-.41-.11"/><path class="b299c355-b21f-4026-9683-563154654390" d="M36.18,89.5l-1.52,1.13a.39.39,0,0,0-.1.48.3.3,0,0,0,.25.16.33.33,0,0,0,.16,0l1.52-1.14a.37.37,0,0,0,.09-.47.27.27,0,0,0-.4-.11"/><path class="b299c355-b21f-4026-9683-563154654390" d="M55.6,72.92V70.79a.3.3,0,1,0-.59,0v2.13a.3.3,0,1,0,.59,0"/><path class="b299c355-b21f-4026-9683-563154654390" d="M55.45,76.37a.33.33,0,0,0-.3.35v2.12a.3.3,0,1,0,.59,0V76.72a.33.33,0,0,0-.29-.35"/><path class="b299c355-b21f-4026-9683-563154654390" d="M56.79,75.72V73.59a.3.3,0,1,0-.59,0v2.13a.3.3,0,1,0,.59,0"/><path class="b299c355-b21f-4026-9683-563154654390" d="M59,81.56a.33.33,0,0,0,.29-.35V79.09a.3.3,0,1,0-.58,0v2.12a.33.33,0,0,0,.29.35"/><path class="b299c355-b21f-4026-9683-563154654390" d="M56.79,79.32a.32.32,0,0,0-.29.34v2.13a.29.29,0,1,0,.58,0V79.66a.32.32,0,0,0-.29-.34"/><path class="b299c355-b21f-4026-9683-563154654390" d="M57.76,75.91a.33.33,0,0,0-.29.35v2.12a.3.3,0,1,0,.59,0V76.26a.33.33,0,0,0-.3-.35"/><path class="b299c355-b21f-4026-9683-563154654390" d="M57,69.11a.32.32,0,0,0-.3.34v2.13a.3.3,0,1,0,.59,0V69.45a.32.32,0,0,0-.29-.34"/><path class="b299c355-b21f-4026-9683-563154654390" d="M66.46,63a.32.32,0,0,0-.29.34v1.46a.3.3,0,1,0,.58,0V63.3a.32.32,0,0,0-.29-.34"/><path class="b299c355-b21f-4026-9683-563154654390" d="M67.75,61.57a.32.32,0,0,0-.29.34v1.47a.29.29,0,1,0,.58,0V61.91a.32.32,0,0,0-.29-.34"/><path class="b299c355-b21f-4026-9683-563154654390" d="M69.1,69V67.57a.32.32,0,0,0-.29-.35.33.33,0,0,0-.3.35V69a.32.32,0,0,0,.3.34A.32.32,0,0,0,69.1,69"/><path class="b299c355-b21f-4026-9683-563154654390" d="M69.73,69.21a.33.33,0,0,0-.3.35V71A.3.3,0,1,0,70,71V69.56a.33.33,0,0,0-.29-.35"/><path class="b299c355-b21f-4026-9683-563154654390" d="M69,71.68a.33.33,0,0,0-.29.35v1.46a.29.29,0,1,0,.58,0V72a.33.33,0,0,0-.29-.35"/><path class="b299c355-b21f-4026-9683-563154654390" d="M67.56,74.48a.33.33,0,0,0-.3.35v1.46a.3.3,0,1,0,.59,0V74.83a.33.33,0,0,0-.29-.35"/><path class="b299c355-b21f-4026-9683-563154654390" d="M53.91,68.54a.32.32,0,0,0-.3.34V71a.3.3,0,1,0,.59,0V68.88a.32.32,0,0,0-.29-.34"/><path class="b299c355-b21f-4026-9683-563154654390" d="M53.91,72.93a.33.33,0,0,0-.3.35V75.4a.3.3,0,1,0,.59,0V73.28a.33.33,0,0,0-.29-.35"/><path class="b299c355-b21f-4026-9683-563154654390" d="M53.5,77.81a.33.33,0,0,0-.29.35v2.12a.3.3,0,1,0,.58,0V78.16a.33.33,0,0,0-.29-.35"/><path class="b299c355-b21f-4026-9683-563154654390" d="M51,70.86a.32.32,0,0,0-.29.34v2.13a.32.32,0,0,0,.29.34.32.32,0,0,0,.3-.34V71.2a.32.32,0,0,0-.3-.34"/><path class="b299c355-b21f-4026-9683-563154654390" d="M46.89,15.16h0a3.73,3.73,0,0,0,1-.38,8.5,8.5,0,0,1,3.5-1,.31.31,0,0,0,.28-.24.39.39,0,0,0-.12-.39c-.13-.1-3.1-2.4-5.69-1.29-1.11.48-1.25,1.11-1.18,1.55.18,1,1.7,1.77,2.18,1.77m1.27-1.24a1.52,1.52,0,0,0,.1-.57,1.5,1.5,0,0,0-.43-1.09,6.87,6.87,0,0,1,2.6.91,10.07,10.07,0,0,0-2.27.75M46.08,12.5a1.57,1.57,0,0,0-.24.85,1.65,1.65,0,0,0,.16.71,1.57,1.57,0,0,1-.71-.81c-.06-.35.53-.64.79-.75"/><path class="b299c355-b21f-4026-9683-563154654390" d="M60.14,14.79a7.32,7.32,0,0,1,3,.86A3.39,3.39,0,0,0,64,16h0c.43,0,1.74-.65,1.89-1.54.07-.4,0-1-1-1.38-2.22-1-4.77,1-4.88,1.1a.39.39,0,0,0-.12.39.31.31,0,0,0,.28.24m5.17-.5a1.16,1.16,0,0,1-.52.61,1.4,1.4,0,0,0,.1-.51,1.39,1.39,0,0,0-.16-.65c.38.18.61.39.58.55m-2.17-.77a1.34,1.34,0,0,0-.31.87,1.42,1.42,0,0,0,.06.42,9.29,9.29,0,0,0-1.76-.6,5.67,5.67,0,0,1,2-.69"/><path class="b299c355-b21f-4026-9683-563154654390" d="M63.76,52l.12-.22a2.1,2.1,0,0,0-1.32.45.11.11,0,0,0,0,.14,1.24,1.24,0,0,0,1.1.58l.12,0-.14-.18a.9.9,0,0,0,0-.75h.12m-.28.7s-.26-.14-.26-.31.27-.31.27-.31a.6.6,0,0,1,.1.31.52.52,0,0,1-.11.31"/><path class="b299c355-b21f-4026-9683-563154654390" d="M63.33,51a.74.74,0,0,1,.78.29l.18-.16a1,1,0,0,0-1-.42,1.56,1.56,0,0,0-1.06.8l.19.15a1.23,1.23,0,0,1,.88-.66"/><path class="b299c355-b21f-4026-9683-563154654390" d="M39.64,21.3l.13.24h.14a1.06,1.06,0,0,0,0,.87l-.16.21h.14A1.39,1.39,0,0,0,41.18,22a.12.12,0,0,0,0-.16,2.39,2.39,0,0,0-1.52-.52m.45,1.06A.63.63,0,0,1,40,22a.64.64,0,0,1,.13-.36s.28.15.28.35-.28.36-.28.36"/><path class="b299c355-b21f-4026-9683-563154654390" d="M66.19,21.09l.11-.2a2,2,0,0,0-1.22.42.11.11,0,0,0,0,.12,1.13,1.13,0,0,0,1,.53h.12l-.14-.17a.8.8,0,0,0,0-.69.31.31,0,0,1,.11,0m-.25.65s-.26-.13-.26-.29.26-.28.26-.28a.52.52,0,0,1,.1.28.53.53,0,0,1-.1.29"/><path class="b299c355-b21f-4026-9683-563154654390" d="M53.86,63.14c-.45-.36-.91-.74-1.36-1.12a.31.31,0,0,0-.47.08.45.45,0,0,0,.08.56c.46.39.92.77,1.38,1.13a.26.26,0,0,0,.18.07.32.32,0,0,0,.28-.17.45.45,0,0,0-.09-.55"/><path class="b299c355-b21f-4026-9683-563154654390" d="M56.39,65c-.47-.33-1-.67-1.42-1a.31.31,0,0,0-.46.12.45.45,0,0,0,.1.55c.48.36,1,.71,1.43,1a.3.3,0,0,0,.17.05.33.33,0,0,0,.29-.19.44.44,0,0,0-.11-.54"/><path class="b299c355-b21f-4026-9683-563154654390" d="M47.82,57.61a.3.3,0,0,0-.47,0,.45.45,0,0,0,0,.56c.42.43.85.87,1.28,1.29a.3.3,0,0,0,.21.09.33.33,0,0,0,.26-.14.45.45,0,0,0,0-.56c-.43-.41-.85-.84-1.27-1.27"/><path class="b299c355-b21f-4026-9683-563154654390" d="M57.54,65.81a.31.31,0,0,0-.46.15.44.44,0,0,0,.13.54c.5.32,1,.63,1.5.92a.28.28,0,0,0,.15,0,.34.34,0,0,0,.3-.22.44.44,0,0,0-.15-.53c-.49-.28-1-.59-1.47-.9"/><path class="b299c355-b21f-4026-9683-563154654390" d="M51.43,61.08c-.44-.39-.88-.79-1.31-1.2a.3.3,0,0,0-.47.06.44.44,0,0,0,.05.55c.44.42.88.83,1.33,1.22a.27.27,0,0,0,.2.08.3.3,0,0,0,.26-.15.44.44,0,0,0-.06-.56"/><path class="b299c355-b21f-4026-9683-563154654390" d="M44.05,101.74a.33.33,0,0,0-.43.24l-.55,1.79a.41.41,0,0,0,.2.51l.11,0a.34.34,0,0,0,.31-.26l.56-1.79a.41.41,0,0,0-.2-.51"/><path class="b299c355-b21f-4026-9683-563154654390" d="M43.05,105a.33.33,0,0,0-.43.24L42.06,107a.43.43,0,0,0,.2.51.25.25,0,0,0,.12,0,.34.34,0,0,0,.31-.26l.56-1.79a.43.43,0,0,0-.2-.51"/><path class="b299c355-b21f-4026-9683-563154654390" d="M45.28,97.81a.2.2,0,0,0,.11,0,.33.33,0,0,0,.31-.26l.56-1.8a.4.4,0,0,0-.2-.5.31.31,0,0,0-.42.23l-.56,1.8a.4.4,0,0,0,.2.5"/><path class="b299c355-b21f-4026-9683-563154654390" d="M48.48,102.27a.33.33,0,0,0-.38.32l-.29,1.9a.4.4,0,0,0,.27.46h.06a.36.36,0,0,0,.33-.33l.29-1.91a.39.39,0,0,0-.28-.45"/><path class="b299c355-b21f-4026-9683-563154654390" d="M49.51,95.41a.33.33,0,0,0-.38.32l-.29,1.9a.4.4,0,0,0,.27.46h.06a.36.36,0,0,0,.33-.33l.29-1.9a.4.4,0,0,0-.28-.46"/><path class="b299c355-b21f-4026-9683-563154654390" d="M48,105.7a.34.34,0,0,0-.39.32l-.28,1.9a.39.39,0,0,0,.27.46h.06a.37.37,0,0,0,.33-.32l.28-1.91a.39.39,0,0,0-.27-.45"/><path class="b299c355-b21f-4026-9683-563154654390" d="M54.11,102.54a.37.37,0,0,0-.34.4v2a.34.34,0,1,0,.67,0v-2a.37.37,0,0,0-.33-.4"/><path class="b299c355-b21f-4026-9683-563154654390" d="M53.77,97.83a.34.34,0,1,0,.67,0v-2a.34.34,0,1,0-.67,0Z"/><path class="b299c355-b21f-4026-9683-563154654390" d="M54.11,106.08a.37.37,0,0,0-.34.4v2a.34.34,0,1,0,.67,0v-2a.37.37,0,0,0-.33-.4"/><path class="b299c355-b21f-4026-9683-563154654390" d="M62,95.78l.56,1.8a.35.35,0,0,0,.32.26l.11,0a.42.42,0,0,0,.2-.5l-.56-1.8a.32.32,0,0,0-.43-.23.42.42,0,0,0-.2.5"/><path class="b299c355-b21f-4026-9683-563154654390" d="M65,105.48l.56,1.79a.34.34,0,0,0,.31.26.25.25,0,0,0,.12,0,.42.42,0,0,0,.19-.51l-.55-1.79a.33.33,0,0,0-.43-.24.41.41,0,0,0-.2.51"/><path class="b299c355-b21f-4026-9683-563154654390" d="M64,102.25l.56,1.79a.35.35,0,0,0,.32.26l.11,0a.44.44,0,0,0,.2-.51L64.59,102a.32.32,0,0,0-.43-.24.43.43,0,0,0-.2.51"/><path class="b299c355-b21f-4026-9683-563154654390" d="M60.13,105a.38.38,0,0,0,.27-.46l-.28-1.9a.34.34,0,0,0-.39-.32.39.39,0,0,0-.27.45l.29,1.91a.36.36,0,0,0,.33.33h.05"/><path class="b299c355-b21f-4026-9683-563154654390" d="M59.1,98.09a.4.4,0,0,0,.28-.46l-.29-1.9a.34.34,0,0,0-.39-.32.4.4,0,0,0-.27.46l.29,1.9a.36.36,0,0,0,.33.33h.05"/><path class="b299c355-b21f-4026-9683-563154654390" d="M60.63,106a.33.33,0,0,0-.38-.32.38.38,0,0,0-.27.45l.28,1.91a.35.35,0,0,0,.33.32h.06a.4.4,0,0,0,.27-.46Z"/><path class="b299c355-b21f-4026-9683-563154654390" d="M25.78,83.12a.34.34,0,0,0,.21.08.3.3,0,0,0,.26-.15.43.43,0,0,0-.06-.55c-.43-.4-.87-.82-1.28-1.23a.3.3,0,0,0-.47,0,.45.45,0,0,0,0,.56l1.31,1.25"/><path class="b299c355-b21f-4026-9683-563154654390" d="M17.31,70.55a.32.32,0,0,0-.46-.16.43.43,0,0,0-.13.53c.27.57.56,1.15.86,1.72a.33.33,0,0,0,.29.19.27.27,0,0,0,.17-.06.45.45,0,0,0,.11-.55c-.3-.56-.58-1.12-.84-1.67"/><path class="b299c355-b21f-4026-9683-563154654390" d="M18.88,73.52a.31.31,0,0,0-.47-.1.44.44,0,0,0-.08.55c.32.54.65,1.08,1,1.61a.33.33,0,0,0,.27.15.32.32,0,0,0,.2-.08.47.47,0,0,0,.06-.56c-.34-.51-.67-1-1-1.57"/><path class="b299c355-b21f-4026-9683-563154654390" d="M22.71,78.89a.3.3,0,0,0-.47,0,.45.45,0,0,0,0,.56c.39.46.8.92,1.22,1.37a.29.29,0,0,0,.23.1.28.28,0,0,0,.24-.13.42.42,0,0,0,0-.55c-.41-.44-.81-.9-1.2-1.35"/><path class="b299c355-b21f-4026-9683-563154654390" d="M20.69,76.31a.3.3,0,0,0-.47,0,.44.44,0,0,0,0,.55c.36.51.74,1,1.12,1.49a.31.31,0,0,0,.25.13.29.29,0,0,0,.22-.11.42.42,0,0,0,0-.55c-.38-.48-.75-1-1.1-1.46"/><path class="b299c355-b21f-4026-9683-563154654390" d="M25,72.33a.31.31,0,0,0-.47-.07.45.45,0,0,0,0,.56c.35.52.71,1,1.06,1.53a.33.33,0,0,0,.26.14A.3.3,0,0,0,26,74.4a.44.44,0,0,0,0-.55c-.34-.49-.7-1-1-1.52"/><path class="b299c355-b21f-4026-9683-563154654390" d="M33,82.31a.44.44,0,0,0,.07.55c.45.39.91.78,1.38,1.14a.26.26,0,0,0,.18.07.32.32,0,0,0,.28-.17.45.45,0,0,0-.09-.55c-.46-.36-.91-.74-1.35-1.12a.3.3,0,0,0-.47.08"/><path class="b299c355-b21f-4026-9683-563154654390" d="M27,75a.31.31,0,0,0-.48,0,.45.45,0,0,0,0,.55c.38.51.76,1,1.13,1.47a.31.31,0,0,0,.25.13.33.33,0,0,0,.23-.11.44.44,0,0,0,0-.55c-.37-.47-.74-1-1.11-1.46"/><path class="b299c355-b21f-4026-9683-563154654390" d="M15.64,45.73h0a.37.37,0,0,0,.33-.4c0-.6,0-1.21,0-1.81v-.15a.39.39,0,0,0-.1-.28.31.31,0,0,0-.23-.12.37.37,0,0,0-.34.4v.15q0,.91,0,1.83a.35.35,0,0,0,.33.38"/><path class="b299c355-b21f-4026-9683-563154654390" d="M21.46,66.65a.3.3,0,0,0-.46-.1.45.45,0,0,0-.09.55l1,1.61a.32.32,0,0,0,.27.16.31.31,0,0,0,.2-.07.44.44,0,0,0,.07-.55l-1-1.6"/><path class="b299c355-b21f-4026-9683-563154654390" d="M23.21,69.52a.31.31,0,0,0-.47-.08.44.44,0,0,0-.07.55l1,1.58a.33.33,0,0,0,.27.15.27.27,0,0,0,.2-.08.44.44,0,0,0,.06-.55c-.33-.5-.66-1-1-1.57"/><path class="b299c355-b21f-4026-9683-563154654390" d="M17.16,55.78c-.13-.62-.25-1.26-.36-1.91a.35.35,0,0,0-.4-.31.41.41,0,0,0-.26.47c.11.66.24,1.31.38,1.94a.34.34,0,0,0,.32.3l.08,0a.39.39,0,0,0,.24-.47"/><path class="b299c355-b21f-4026-9683-563154654390" d="M18,59.13c-.18-.59-.36-1.22-.52-1.85A.31.31,0,0,0,17.1,57a.41.41,0,0,0-.23.49c.17.64.34,1.28.53,1.89a.35.35,0,0,0,.32.26l.11,0a.43.43,0,0,0,.2-.51"/><path class="b299c355-b21f-4026-9683-563154654390" d="M32.43,81.28c-.43-.41-.86-.83-1.28-1.26a.3.3,0,0,0-.47,0,.45.45,0,0,0,0,.56c.42.44.86.87,1.29,1.27a.29.29,0,0,0,.21.09.31.31,0,0,0,.26-.15.45.45,0,0,0,0-.55"/><path class="b299c355-b21f-4026-9683-563154654390" d="M15.86,49.27a.39.39,0,0,0,.31-.43c-.06-.64-.1-1.29-.13-2a.36.36,0,0,0-.36-.37.38.38,0,0,0-.31.42c0,.66.08,1.33.13,2a.37.37,0,0,0,.33.36h0"/><path class="b299c355-b21f-4026-9683-563154654390" d="M19.05,62.88a.42.42,0,0,0,.14-.53c-.24-.56-.47-1.16-.68-1.77a.32.32,0,0,0-.44-.21.43.43,0,0,0-.18.52c.22.62.46,1.23.71,1.81a.33.33,0,0,0,.3.22.28.28,0,0,0,.15,0"/><path class="b299c355-b21f-4026-9683-563154654390" d="M29,77.61a.3.3,0,0,0-.47,0,.45.45,0,0,0,0,.56c.39.47.8.94,1.2,1.38a.33.33,0,0,0,.23.11.31.31,0,0,0,.25-.13.44.44,0,0,0,0-.55c-.4-.44-.8-.9-1.19-1.37"/><path class="b299c355-b21f-4026-9683-563154654390" d="M37.92,78.08c-.41-.39-.84-.82-1.27-1.27a.3.3,0,0,0-.47,0,.45.45,0,0,0,0,.56c.44.46.87.89,1.28,1.29a.3.3,0,0,0,.21.09.31.31,0,0,0,.26-.14.45.45,0,0,0,0-.56"/><path class="b299c355-b21f-4026-9683-563154654390" d="M34.49,74.38a.31.31,0,0,0-.48,0,.45.45,0,0,0,0,.56c.41.48.81.94,1.21,1.38a.27.27,0,0,0,.23.11.3.3,0,0,0,.24-.12.45.45,0,0,0,0-.56c-.39-.43-.79-.89-1.19-1.37"/><path class="b299c355-b21f-4026-9683-563154654390" d="M32.42,71.83a.3.3,0,0,0-.47,0,.45.45,0,0,0,0,.56c.39.49.77,1,1.15,1.44a.31.31,0,0,0,.24.13.34.34,0,0,0,.24-.11.46.46,0,0,0,0-.56c-.38-.46-.76-1-1.14-1.43"/><path class="b299c355-b21f-4026-9683-563154654390" d="M23,58c.27.59.55,1.17.83,1.73a.32.32,0,0,0,.28.2.27.27,0,0,0,.17-.06.43.43,0,0,0,.12-.54q-.41-.82-.81-1.71a.3.3,0,0,0-.45-.15A.42.42,0,0,0,23,58"/><path class="b299c355-b21f-4026-9683-563154654390" d="M19.74,46.88h0a.37.37,0,0,0,.32-.41c0-.58,0-1.22,0-2a.37.37,0,0,0-.33-.39h0a.37.37,0,0,0-.34.4c0,.74,0,1.4,0,2a.37.37,0,0,0,.34.38"/><path class="b299c355-b21f-4026-9683-563154654390" d="M19.7,43.33h0a.36.36,0,0,0,.33-.39c0-.42,0-.85,0-1.28V41a.38.38,0,0,0-.33-.4h0a.37.37,0,0,0-.34.39v.68c0,.44,0,.87,0,1.29a.37.37,0,0,0,.33.4"/><path class="b299c355-b21f-4026-9683-563154654390" d="M28.52,66.45a.3.3,0,0,0-.47-.06.44.44,0,0,0-.05.55c.34.51.7,1,1.06,1.54a.31.31,0,0,0,.25.14.33.33,0,0,0,.22-.09.45.45,0,0,0,0-.56c-.36-.51-.71-1-1.05-1.52"/><path class="b299c355-b21f-4026-9683-563154654390" d="M20.52,36.38a.25.25,0,0,0,.16,0,.33.33,0,0,0,.3-.2,11.64,11.64,0,0,1,.89-1.6.44.44,0,0,0-.07-.55.3.3,0,0,0-.46.07,13.18,13.18,0,0,0-.95,1.7.42.42,0,0,0,.13.53"/><path class="b299c355-b21f-4026-9683-563154654390" d="M22.32,56.64a.33.33,0,0,0,.3.21.28.28,0,0,0,.15,0,.43.43,0,0,0,.14-.53c-.25-.58-.51-1.17-.75-1.75a.3.3,0,0,0-.44-.18.42.42,0,0,0-.16.52c.25.59.5,1.19.76,1.77"/><path class="b299c355-b21f-4026-9683-563154654390" d="M19.81,47.66a.39.39,0,0,0-.3.44,16.46,16.46,0,0,0,.32,2,.36.36,0,0,0,.32.29l.09,0a.41.41,0,0,0,.24-.49,14.1,14.1,0,0,1-.3-1.87.36.36,0,0,0-.37-.35"/><path class="b299c355-b21f-4026-9683-563154654390" d="M26.7,63.64a.31.31,0,0,0-.47-.08.44.44,0,0,0-.07.55c.31.5.65,1,1,1.58a.31.31,0,0,0,.26.16.3.3,0,0,0,.21-.09.45.45,0,0,0,.06-.55c-.36-.55-.7-1.07-1-1.57"/><path class="b299c355-b21f-4026-9683-563154654390" d="M30.43,69.18a.3.3,0,0,0-.47-.05.45.45,0,0,0,0,.56L31,71.18a.31.31,0,0,0,.25.13.32.32,0,0,0,.23-.1.44.44,0,0,0,0-.55c-.36-.48-.73-1-1.09-1.48"/><path class="b299c355-b21f-4026-9683-563154654390" d="M24.81,35.87a.33.33,0,0,0-.44.22,7.31,7.31,0,0,0-.39,2,.37.37,0,0,0,.31.42h0a.36.36,0,0,0,.33-.37A6.69,6.69,0,0,1,25,36.39a.43.43,0,0,0-.18-.52"/><path class="b299c355-b21f-4026-9683-563154654390" d="M24.94,46.39a.39.39,0,0,0-.28.45,13,13,0,0,0,.37,2,.35.35,0,0,0,.32.26.23.23,0,0,0,.11,0,.41.41,0,0,0,.2-.5,11.28,11.28,0,0,1-.34-1.85.35.35,0,0,0-.38-.33"/><path class="b299c355-b21f-4026-9683-563154654390" d="M45.9,74.87a.31.31,0,0,0,.26-.15.44.44,0,0,0-.06-.55c-.41-.39-.85-.8-1.29-1.23a.3.3,0,0,0-.47,0,.44.44,0,0,0,0,.55c.45.44.89.86,1.31,1.25a.32.32,0,0,0,.21.08"/><path class="b299c355-b21f-4026-9683-563154654390" d="M33.91,60.75a.3.3,0,0,0-.47,0,.45.45,0,0,0,0,.56c.36.46.75.94,1.16,1.43a.31.31,0,0,0,.24.12.3.3,0,0,0,.24-.11.44.44,0,0,0,0-.55l-1.15-1.43"/><path class="b299c355-b21f-4026-9683-563154654390" d="M42.53,70.63a.3.3,0,0,0-.47,0,.45.45,0,0,0,0,.56c.42.45.85.89,1.26,1.3a.3.3,0,0,0,.48,0,.45.45,0,0,0,0-.56l-1.26-1.29"/><path class="b299c355-b21f-4026-9683-563154654390" d="M40.31,68.24a.3.3,0,0,0-.47,0,.45.45,0,0,0,0,.56c.41.45.82.9,1.24,1.34a.28.28,0,0,0,.22.1.31.31,0,0,0,.25-.13.45.45,0,0,0,0-.55c-.42-.44-.83-.89-1.23-1.34"/><path class="b299c355-b21f-4026-9683-563154654390" d="M36,63.3a.3.3,0,0,0-.47,0,.44.44,0,0,0,0,.56l1.19,1.4a.3.3,0,0,0,.47,0,.45.45,0,0,0,0-.56c-.41-.47-.81-.94-1.18-1.39"/><path class="b299c355-b21f-4026-9683-563154654390" d="M38.13,65.8a.3.3,0,0,0-.47,0,.44.44,0,0,0,0,.55l1.21,1.38a.33.33,0,0,0,.24.1.33.33,0,0,0,.24-.12.46.46,0,0,0,0-.56c-.42-.46-.82-.91-1.21-1.36"/><path class="b299c355-b21f-4026-9683-563154654390" d="M28.06,52.66a.3.3,0,0,0-.47-.06.47.47,0,0,0-.05.56c.35.49.7,1,1.07,1.53a.3.3,0,0,0,.47.05.45.45,0,0,0,0-.56c-.36-.51-.72-1-1.06-1.52"/><path class="b299c355-b21f-4026-9683-563154654390" d="M46.76,75.76c.47.41.94.8,1.37,1.15a.3.3,0,0,0,.19.07.33.33,0,0,0,.28-.17.45.45,0,0,0-.09-.55c-.43-.34-.88-.73-1.35-1.14a.31.31,0,0,0-.47.08.45.45,0,0,0,.07.56"/><path class="b299c355-b21f-4026-9683-563154654390" d="M24.5,45.25a.36.36,0,0,0,.33.36h0a.4.4,0,0,0,.3-.43c0-.4-.07-.82-.1-1.26l-.06-.7a.35.35,0,0,0-.36-.36.38.38,0,0,0-.3.43l0,.7c0,.44.07.86.1,1.26"/><path class="b299c355-b21f-4026-9683-563154654390" d="M30,55.4a.3.3,0,0,0-.47,0,.44.44,0,0,0-.05.55l1.08,1.51a.3.3,0,0,0,.47.05.44.44,0,0,0,0-.55L30,55.4"/><path class="b299c355-b21f-4026-9683-563154654390" d="M41.44,59.79a.3.3,0,0,0-.47,0,.45.45,0,0,0,0,.56l1.27,1.29a.31.31,0,0,0,.22.09.3.3,0,0,0,.25-.13.45.45,0,0,0,0-.56l-1.27-1.29"/><path class="b299c355-b21f-4026-9683-563154654390" d="M46,64.45a.31.31,0,0,0-.48,0,.47.47,0,0,0,0,.56l1.26,1.3a.32.32,0,0,0,.22.1.31.31,0,0,0,.25-.14.44.44,0,0,0,0-.55L46,64.45"/><path class="b299c355-b21f-4026-9683-563154654390" d="M32.87,50a.29.29,0,0,0-.46-.07.43.43,0,0,0-.06.55c.34.52.7,1,1.06,1.55a.31.31,0,0,0,.25.14.32.32,0,0,0,.22-.1.44.44,0,0,0,0-.55c-.36-.5-.71-1-1.05-1.52"/><path class="b299c355-b21f-4026-9683-563154654390" d="M43.72,62.11a.3.3,0,0,0-.47,0,.44.44,0,0,0,0,.56L44.54,64a.31.31,0,0,0,.22.09A.3.3,0,0,0,45,64a.45.45,0,0,0,0-.56l-1.26-1.3"/><path class="b299c355-b21f-4026-9683-563154654390" d="M48.24,66.8a.3.3,0,0,0-.47,0,.44.44,0,0,0,0,.55l1.25,1.31a.3.3,0,0,0,.22.1.29.29,0,0,0,.25-.13.45.45,0,0,0,0-.56L48.24,66.8"/><path class="b299c355-b21f-4026-9683-563154654390" d="M29.86,46.21a.32.32,0,0,0,.29.18.34.34,0,0,0,.17,0,.44.44,0,0,0,.11-.55c-.29-.56-.57-1.12-.83-1.69a.31.31,0,0,0-.46-.15.42.42,0,0,0-.13.53c.27.58.56,1.16.85,1.73"/><path class="b299c355-b21f-4026-9683-563154654390" d="M34.79,52.67a.3.3,0,0,0-.47,0,.44.44,0,0,0,0,.56c.38.49.77,1,1.16,1.44a.31.31,0,0,0,.24.12.29.29,0,0,0,.23-.12.41.41,0,0,0,0-.55c-.38-.46-.77-.94-1.14-1.42"/><path class="b299c355-b21f-4026-9683-563154654390" d="M39.15,57.48a.3.3,0,0,0-.47.05.44.44,0,0,0,0,.55L40,59.36a.28.28,0,0,0,.22.1.33.33,0,0,0,.25-.14.45.45,0,0,0,0-.56l-1.27-1.28"/><path class="b299c355-b21f-4026-9683-563154654390" d="M33,44.5a.31.31,0,0,0,.26.15.29.29,0,0,0,.21-.09.42.42,0,0,0,0-.55c-.33-.48-.67-1-1-1.55a.31.31,0,0,0-.47-.07A.47.47,0,0,0,32,43c.36.54.71,1.07,1,1.55"/><path class="b299c355-b21f-4026-9683-563154654390" d="M37.13,49.75a.3.3,0,0,0,.24.12.28.28,0,0,0,.23-.11.45.45,0,0,0,0-.56c-.41-.48-.8-1-1.18-1.4a.3.3,0,0,0-.47,0,.45.45,0,0,0,0,.56l1.17,1.4"/><path class="b299c355-b21f-4026-9683-563154654390" d="M39.24,52.29a.29.29,0,0,0,.23.12.3.3,0,0,0,.24-.11.45.45,0,0,0,0-.56l-1.17-1.41a.3.3,0,0,0-.47,0,.44.44,0,0,0,0,.55Z"/><path class="b299c355-b21f-4026-9683-563154654390" d="M43.17,51.6a.34.34,0,0,0,.25.13.29.29,0,0,0,.22-.11.44.44,0,0,0,0-.56c-.34-.44-.71-.94-1.09-1.46a.3.3,0,0,0-.47-.05.43.43,0,0,0,0,.55c.38.54.76,1,1.11,1.5"/><path class="b299c355-b21f-4026-9683-563154654390" d="M41.2,48.88a.33.33,0,0,0,.26.14.28.28,0,0,0,.21-.08.45.45,0,0,0,0-.56c-.33-.49-.68-1-1-1.55a.31.31,0,0,0-.47-.07.44.44,0,0,0-.07.55c.36.54.7,1.07,1,1.57"/><path class="b299c355-b21f-4026-9683-563154654390" d="M73.51,69a.35.35,0,0,0-.4.31c-.1.63-.21,1.28-.32,1.94a.39.39,0,0,0,.26.46h.07a.35.35,0,0,0,.32-.32c.12-.66.23-1.31.33-1.94a.4.4,0,0,0-.26-.46"/><path class="b299c355-b21f-4026-9683-563154654390" d="M72.92,72.49a.33.33,0,0,0-.4.3c-.11.65-.23,1.3-.34,1.94a.39.39,0,0,0,.26.46h.07a.35.35,0,0,0,.32-.31c.12-.64.23-1.29.35-1.94a.4.4,0,0,0-.26-.46"/><path class="b299c355-b21f-4026-9683-563154654390" d="M72.3,76a.33.33,0,0,0-.39.3c-.13.69-.25,1.34-.35,1.93a.39.39,0,0,0,.25.47h.07a.35.35,0,0,0,.33-.31c.11-.6.23-1.25.35-1.94A.39.39,0,0,0,72.3,76"/><path class="b299c355-b21f-4026-9683-563154654390" d="M74.05,65.5a.35.35,0,0,0-.39.32c-.08.56-.18,1.21-.29,1.94a.38.38,0,0,0,.26.46h.07a.35.35,0,0,0,.32-.32c.12-.73.22-1.39.3-2a.4.4,0,0,0-.27-.46"/><path class="b299c355-b21f-4026-9683-563154654390" d="M78.54,67.89a.35.35,0,0,0-.39.32c-.09.62-.19,1.27-.3,1.94a.4.4,0,0,0,.27.46h.06a.36.36,0,0,0,.33-.33c.1-.66.2-1.32.3-1.94a.39.39,0,0,0-.27-.46"/><path class="b299c355-b21f-4026-9683-563154654390" d="M78,71.39a.33.33,0,0,0-.38.31c-.11.65-.21,1.3-.32,1.94a.4.4,0,0,0,.27.46h.06a.35.35,0,0,0,.33-.32c.1-.64.21-1.29.31-1.94a.38.38,0,0,0-.27-.46"/><path class="b299c355-b21f-4026-9683-563154654390" d="M78.66,67.11h.06a.36.36,0,0,0,.33-.33c.11-.74.21-1.4.29-2a.39.39,0,0,0-.27-.45.34.34,0,0,0-.39.32c-.08.55-.18,1.21-.29,1.94a.4.4,0,0,0,.27.46"/><path class="b299c355-b21f-4026-9683-563154654390" d="M77.43,74.88a.34.34,0,0,0-.39.31c-.11.69-.21,1.34-.31,2a.39.39,0,0,0,.26.46h.07a.36.36,0,0,0,.33-.32c.09-.6.2-1.25.31-1.94a.39.39,0,0,0-.27-.46"/><path class="b299c355-b21f-4026-9683-563154654390" d="M80,83.31a.33.33,0,0,0-.39.3c-.13.7-.26,1.34-.37,1.93a.4.4,0,0,0,.25.47h.08a.34.34,0,0,0,.32-.31c.11-.58.24-1.23.37-1.93a.4.4,0,0,0-.26-.47"/><path class="b299c355-b21f-4026-9683-563154654390" d="M81.24,76.36a.34.34,0,0,0-.4.3c-.11.66-.23,1.31-.34,1.94a.39.39,0,0,0,.26.46h.07a.35.35,0,0,0,.32-.31c.12-.63.23-1.28.35-1.94a.4.4,0,0,0-.26-.46"/><path class="b299c355-b21f-4026-9683-563154654390" d="M82.94,65.89a.33.33,0,0,0-.38.32l-.3,1.94a.4.4,0,0,0,.27.46h.06a.35.35,0,0,0,.33-.32l.3-2a.38.38,0,0,0-.28-.45"/><path class="b299c355-b21f-4026-9683-563154654390" d="M80.62,79.84a.34.34,0,0,0-.4.3c-.12.67-.24,1.31-.36,1.93a.41.41,0,0,0,.26.47h.07a.36.36,0,0,0,.33-.31c.11-.62.23-1.27.35-1.94a.38.38,0,0,0-.25-.46"/><path class="b299c355-b21f-4026-9683-563154654390" d="M81.84,72.87a.35.35,0,0,0-.4.31l-.33,1.94a.4.4,0,0,0,.26.46h.07a.36.36,0,0,0,.33-.32c.11-.63.22-1.28.33-1.93a.41.41,0,0,0-.26-.47"/><path class="b299c355-b21f-4026-9683-563154654390" d="M82.41,69.39a.33.33,0,0,0-.39.31c-.11.65-.21,1.29-.32,1.94a.39.39,0,0,0,.27.46H82a.35.35,0,0,0,.33-.32c.11-.65.21-1.3.31-1.94a.38.38,0,0,0-.26-.46"/><path class="b299c355-b21f-4026-9683-563154654390" d="M86.59,57a.38.38,0,0,0,.32.42h0a.36.36,0,0,0,.33-.37c0-.64.07-1.31.1-2a.38.38,0,0,0-.32-.42.36.36,0,0,0-.35.37c0,.66-.06,1.34-.1,2"/><path class="b299c355-b21f-4026-9683-563154654390" d="M90.4,56.86a.3.3,0,0,0-.23-.11.36.36,0,0,0-.34.39v2a.37.37,0,0,0,.33.4.38.38,0,0,0,.33-.4v-2a.43.43,0,0,0-.1-.28"/><path class="b299c355-b21f-4026-9683-563154654390" d="M90.17,56a.37.37,0,0,0,.33-.4v-2a.37.37,0,0,0-.34-.39h0a.37.37,0,0,0-.33.39v2a.37.37,0,0,0,.34.39"/><path class="b299c355-b21f-4026-9683-563154654390" d="M87.27,69.39h.06a.35.35,0,0,0,.33-.32c.12-.69.23-1.34.32-1.94a.39.39,0,0,0-.26-.46.34.34,0,0,0-.39.31c-.1.6-.21,1.25-.32,1.94a.4.4,0,0,0,.26.47"/><path class="b299c355-b21f-4026-9683-563154654390" d="M86.67,72.87h.07a.37.37,0,0,0,.33-.32c.11-.66.22-1.31.33-1.93a.4.4,0,0,0-.26-.47.34.34,0,0,0-.39.31c-.11.63-.22,1.27-.34,1.94a.39.39,0,0,0,.26.46"/><path class="b299c355-b21f-4026-9683-563154654390" d="M85.9,77.12a.35.35,0,0,0-.4.3c-.12.65-.24,1.3-.37,1.92a.41.41,0,0,0,.25.48h.08a.34.34,0,0,0,.32-.31c.13-.63.25-1.27.38-1.93a.41.41,0,0,0-.26-.47"/><path class="b299c355-b21f-4026-9683-563154654390" d="M86.54,73.65a.33.33,0,0,0-.4.3c-.11.64-.23,1.29-.35,1.93a.41.41,0,0,0,.26.47h.07a.35.35,0,0,0,.32-.31c.12-.65.24-1.3.35-1.94a.38.38,0,0,0-.25-.46"/><path class="b299c355-b21f-4026-9683-563154654390" d="M85.23,80.59a.35.35,0,0,0-.41.29c-.14.68-.27,1.33-.4,1.91a.41.41,0,0,0,.23.48h.09a.35.35,0,0,0,.32-.29c.13-.59.27-1.23.41-1.92a.39.39,0,0,0-.24-.48"/><path class="b299c355-b21f-4026-9683-563154654390" d="M87.88,87a.33.33,0,0,0-.44.22c-.2.62-.41,1.23-.62,1.82a.43.43,0,0,0,.18.52.31.31,0,0,0,.13,0,.34.34,0,0,0,.31-.24c.21-.6.43-1.22.63-1.84a.43.43,0,0,0-.19-.51"/><path class="b299c355-b21f-4026-9683-563154654390" d="M88.89,83.62a.32.32,0,0,0-.43.24c-.17.62-.36,1.25-.55,1.85a.43.43,0,0,0,.2.51.25.25,0,0,0,.12,0,.34.34,0,0,0,.31-.26c.19-.61.38-1.24.56-1.87a.4.4,0,0,0-.21-.49"/><path class="b299c355-b21f-4026-9683-563154654390" d="M86.74,90.24a.32.32,0,0,0-.44.2c-.23.61-.47,1.21-.7,1.78a.44.44,0,0,0,.15.53.42.42,0,0,0,.15,0,.33.33,0,0,0,.3-.23c.24-.58.47-1.18.71-1.8a.43.43,0,0,0-.17-.52"/><path class="b299c355-b21f-4026-9683-563154654390" d="M89.77,80.22a.33.33,0,0,0-.41.27c-.16.63-.32,1.26-.49,1.88a.41.41,0,0,0,.22.49.2.2,0,0,0,.1,0,.33.33,0,0,0,.32-.27c.17-.63.33-1.27.49-1.9a.41.41,0,0,0-.23-.49"/><path class="b299c355-b21f-4026-9683-563154654390" d="M90.53,76.79a.33.33,0,0,0-.4.29c-.14.63-.27,1.27-.42,1.9a.41.41,0,0,0,.24.48l.09,0a.36.36,0,0,0,.32-.3l.42-1.91a.41.41,0,0,0-.25-.48"/><path class="b299c355-b21f-4026-9683-563154654390" d="M91.16,73.32a.34.34,0,0,0-.39.31c-.11.64-.22,1.28-.34,1.92a.4.4,0,0,0,.25.47h.07a.35.35,0,0,0,.33-.31c.12-.64.24-1.29.35-1.94a.39.39,0,0,0-.27-.46"/><path class="b299c355-b21f-4026-9683-563154654390" d="M91.67,69.82a.35.35,0,0,0-.38.33c-.08.65-.18,1.3-.27,1.94a.39.39,0,0,0,.27.45h.06a.35.35,0,0,0,.33-.32c.09-.65.19-1.31.27-2a.39.39,0,0,0-.28-.45"/><path class="b299c355-b21f-4026-9683-563154654390" d="M69.32,36.57a2.58,2.58,0,0,0,1.85.63c.58-.15.88-.28.9-.87s.46-2-.44-2.39c-.22-.09-.43-.07-.81.23l-1.5,1.24a.82.82,0,0,0,0,1.16"/><path class="b299c355-b21f-4026-9683-563154654390" d="M65.72,33a2.47,2.47,0,0,0-1.06,1.38c-.16.49.29,1.06.62,1.44s.86,1,1.72.23,1.33-1.47.94-2.15-.72-1.07-1.14-1.11a1.74,1.74,0,0,0-1.08.21"/><path class="b299c355-b21f-4026-9683-563154654390" d="M64.27,36.85a6.75,6.75,0,0,1-1.37-1.32c-.35-.49-1.12-.41-1.34-.4-.41,0-.7.39-.89.82a5.32,5.32,0,0,1-.9,1.13,1.26,1.26,0,0,0,.08,1.68c.55.49,1.31,1.41,1.9,1.38a1.32,1.32,0,0,0,1.14-.62c.27-.36.68-1,1-1.09s.63-.17.65-.6.09-.72-.29-1"/><path class="b299c355-b21f-4026-9683-563154654390" d="M55.26,37.93c.31.61.72.86,1.18.62s.94-.43,1-1.13a5.15,5.15,0,0,0-.4-2.93A1.19,1.19,0,0,0,55.39,34a4.28,4.28,0,0,0-1.23,1.42c-.14.39-.17.62.1.91a8,8,0,0,1,1,1.57"/><path class="b299c355-b21f-4026-9683-563154654390" d="M59.16,32c-.41.61-.44,1.22-.17,1.38s.71.06.86.6a1.26,1.26,0,0,0,1.29,1c.67-.11,1.08-1,1.2-1.52a8,8,0,0,1,.47-1.41c.14-.35,0-1.22-.62-1.26a5.55,5.55,0,0,0-1.77.35,1.86,1.86,0,0,0-1.26.82"/><path class="b299c355-b21f-4026-9683-563154654390" d="M65.12,32.87c.51-.06,1.23-.17,1.41-.47a2,2,0,0,0,.15-1c0-.23.06-1.23-.61-1.43a2.72,2.72,0,0,0-1.38-.23,1.36,1.36,0,0,0-.52.38,1.23,1.23,0,0,0-.4,1.36c.23.73.84,1.41,1.35,1.36"/><path class="b299c355-b21f-4026-9683-563154654390" d="M61.49,29.53c.91.27,1.68.17,1.87-.7A1.84,1.84,0,0,0,62,26.73c-.37-.13-1.24-.35-1.72.16s-.17,1.7-.08,1.92.34.44,1.26.72"/><path class="b299c355-b21f-4026-9683-563154654390" d="M56.16,28.55c0,.72,0,1.17.4,1.25s.82.06,1.44-.94a3.27,3.27,0,0,0,.78-2.64,1.14,1.14,0,0,0-1.63-1.07c-.57.17-1.08.13-1.31.85a1.76,1.76,0,0,0,0,1.34,2.32,2.32,0,0,1,.32,1.21"/><path class="b299c355-b21f-4026-9683-563154654390" d="M58.38,23.41a1.53,1.53,0,0,0,1-1A1.32,1.32,0,0,0,59,21.07c-.49-.47-.38-.83-.73-1s-.62-.4-1,.12-.48.53-.52,1.13a2.15,2.15,0,0,0,.5,1.37c.27.46.5,1,1.15.7"/><path class="b299c355-b21f-4026-9683-563154654390" d="M59.81,18.05a1,1,0,0,0,1-.35c.44-.5.66-.69.56-1s-.87-.63-1.23-.59a1.33,1.33,0,0,0-.86,1.06c0,.54.22.88.48.9"/><path class="b299c355-b21f-4026-9683-563154654390" d="M65.76,15.87a1,1,0,0,0,.52,1,4,4,0,0,0,1.33.15c.24,0,.48-.07.56-.55s.36-.67.23-1-1-.53-1.5-.37-1.13.36-1.14.71"/><path class="b299c355-b21f-4026-9683-563154654390" d="M58.41,13c-.22-.19-.31.06-.69-.82s-1.31-.51-1.45-.46A1,1,0,0,0,55.81,13c.14.2.33.27.38.6s0,1,.87,1.11a1.11,1.11,0,0,0,1.33-.77c.18-.51.24-.67,0-.87"/><path class="b299c355-b21f-4026-9683-563154654390" d="M49,31.66a.08.08,0,0,0-.12,0c-.13.22-.26.45-.4.67a.12.12,0,0,0,0,.14l0,0a.1.1,0,0,0,.07,0l.4-.68a.14.14,0,0,0,0-.14"/><path class="b299c355-b21f-4026-9683-563154654390" d="M45.07,36.46l-.55.49a.12.12,0,0,0,0,.14.08.08,0,0,0,.07,0l0,0,.56-.5a.12.12,0,0,0,0-.14.08.08,0,0,0-.12,0"/><path class="b299c355-b21f-4026-9683-563154654390" d="M46.13,35.4l-.52.54a.11.11,0,0,0,0,.14.09.09,0,0,0,.06,0l.06,0c.18-.18.35-.37.52-.55a.11.11,0,0,0,0-.14.08.08,0,0,0-.12,0"/><path class="b299c355-b21f-4026-9683-563154654390" d="M44,37.43l-.58.44a.12.12,0,0,0,0,.14.09.09,0,0,0,.08,0h0l.59-.45a.14.14,0,0,0,0-.14.08.08,0,0,0-.12,0"/><path class="b299c355-b21f-4026-9683-563154654390" d="M48,33l-.44.63a.11.11,0,0,0,0,.14l0,0a.09.09,0,0,0,.07,0l.44-.64a.11.11,0,0,0,0-.14A.08.08,0,0,0,48,33"/><path class="b299c355-b21f-4026-9683-563154654390" d="M47.11,34.25c-.15.19-.31.39-.48.58a.12.12,0,0,0,0,.14.07.07,0,0,0,.12,0l.49-.59a.11.11,0,0,0,0-.14s-.08,0-.12,0"/><path class="b299c355-b21f-4026-9683-563154654390" d="M49.49,30.62a.08.08,0,0,0-.11,0c-.06.11-.11.23-.17.34a.11.11,0,0,0,0,.13l0,0a.1.1,0,0,0,.08,0c0-.11.11-.23.17-.34a.12.12,0,0,0,0-.14"/><path class="b299c355-b21f-4026-9683-563154654390" d="M51.36,33.64a.07.07,0,0,0,.06,0l.42-.6a.11.11,0,0,0,0-.14.07.07,0,0,0-.11,0l-.41.59a.11.11,0,0,0,0,.14s0,0,0,0"/><path class="b299c355-b21f-4026-9683-563154654390" d="M51,34.05a.08.08,0,0,0-.12,0c-.14.18-.29.37-.45.55a.12.12,0,0,0,0,.14l.06,0a.09.09,0,0,0,.06,0l.46-.56a.12.12,0,0,0,0-.14"/><path class="b299c355-b21f-4026-9683-563154654390" d="M47,38.17l-.52.47a.12.12,0,0,0,0,.14.13.13,0,0,0,.07,0l0,0,.52-.47a.11.11,0,0,0,0-.14.08.08,0,0,0-.12,0"/><path class="b299c355-b21f-4026-9683-563154654390" d="M48,37.2l-.51.49a.12.12,0,0,0,0,.14.1.1,0,0,0,.07,0l.05,0,.51-.49a.1.1,0,0,0,0-.13.08.08,0,0,0-.12,0"/><path class="b299c355-b21f-4026-9683-563154654390" d="M52.16,32.42s.05,0,.07-.05c.13-.23.24-.45.34-.66a.12.12,0,0,0,0-.14.09.09,0,0,0-.12,0,6.76,6.76,0,0,1-.33.66.09.09,0,0,0,0,.13l0,0"/><path class="b299c355-b21f-4026-9683-563154654390" d="M50,35.15l-.48.53a.11.11,0,0,0,0,.14.06.06,0,0,0,.06,0s0,0,0,0l.48-.53a.1.1,0,0,0,0-.14.07.07,0,0,0-.11,0"/><path class="b299c355-b21f-4026-9683-563154654390" d="M49,36.2l-.49.51a.12.12,0,0,0,0,.14.09.09,0,0,0,.07,0s0,0,.05,0l.49-.5a.11.11,0,0,0,0-.14.08.08,0,0,0-.12,0"/><path class="b299c355-b21f-4026-9683-563154654390" d="M52.74,31.05h0a.08.08,0,0,0,.08-.07,3.06,3.06,0,0,0,.1-.38.1.1,0,0,0-.06-.12.08.08,0,0,0-.1.07l-.09.37a.09.09,0,0,0,.05.12"/><path class="b299c355-b21f-4026-9683-563154654390" d="M42.26,34.2l-.57.5a.11.11,0,0,0,0,.14.08.08,0,0,0,.06,0l.05,0,.58-.5a.11.11,0,0,0,0-.13.08.08,0,0,0-.12,0"/><path class="b299c355-b21f-4026-9683-563154654390" d="M41.1,35.19l-.58.47a.12.12,0,0,0,0,.14.13.13,0,0,0,.07,0l0,0,.59-.47a.11.11,0,0,0,0-.14.08.08,0,0,0-.12,0"/><path class="b299c355-b21f-4026-9683-563154654390" d="M43.38,33.17l-.55.53a.11.11,0,0,0,0,.14.09.09,0,0,0,.07,0l0,0,.56-.53a.1.1,0,0,0,0-.13.08.08,0,0,0-.12,0"/><path class="b299c355-b21f-4026-9683-563154654390" d="M39.92,36.12l-.6.46a.09.09,0,0,0,0,.13.08.08,0,0,0,.07,0l0,0c.18-.13.39-.28.6-.45a.12.12,0,0,0,0-.14.09.09,0,0,0-.12,0"/><path class="b299c355-b21f-4026-9683-563154654390" d="M44.45,32.07l-.52.56a.11.11,0,0,0,0,.14.08.08,0,0,0,.06,0,.09.09,0,0,0,.06,0l.53-.56a.12.12,0,0,0,0-.14.08.08,0,0,0-.12,0"/><path class="b299c355-b21f-4026-9683-563154654390" d="M45.19,31.21l-.23.28a.12.12,0,0,0,0,.14.07.07,0,0,0,.12,0c.08-.1.16-.19.23-.29a.12.12,0,0,0,0-.14.08.08,0,0,0-.12,0"/><path class="b299c355-b21f-4026-9683-563154654390" d="M40.76,33.18c-.2.13-.4.25-.61.36a.1.1,0,0,0,0,.13.07.07,0,0,0,.07.06h0l.62-.36a.1.1,0,0,0,0-.13.08.08,0,0,0-.11,0"/><path class="b299c355-b21f-4026-9683-563154654390" d="M36.93,35l-.66.21a.09.09,0,0,0-.06.12.08.08,0,0,0,.08.07h0l.66-.22c.05,0,.07-.06.06-.12a.07.07,0,0,0-.1-.06"/><path class="b299c355-b21f-4026-9683-563154654390" d="M38.24,34.46l-.65.25a.1.1,0,0,0-.06.12.08.08,0,0,0,.08.07h0l.65-.26a.09.09,0,0,0,.05-.12.07.07,0,0,0-.1-.06"/><path class="b299c355-b21f-4026-9683-563154654390" d="M39.52,33.87l-.64.31a.09.09,0,0,0,0,.12.08.08,0,0,0,.07.07h0l.64-.31a.09.09,0,0,0,.05-.12c0-.06-.07-.08-.11-.06"/><path class="b299c355-b21f-4026-9683-563154654390" d="M42.06,32.41a.07.07,0,0,0-.11,0l-.59.42a.11.11,0,0,0,0,.13.09.09,0,0,0,.08,0h0c.2-.14.4-.28.59-.43a.09.09,0,0,0,0-.13"/><path class="b299c355-b21f-4026-9683-563154654390" d="M42.9,31.71a.07.07,0,0,0-.12,0l-.27.23a.14.14,0,0,0,0,.14.09.09,0,0,0,.07,0l0,0,.27-.24a.11.11,0,0,0,0-.13"/><path class="a7db319f-946f-45cb-a0ce-4e82e38ba3d3" d="M73.07,42.57l-.11,0,0-.17.14,0c.28,0,.47-.09.5-.34a.41.41,0,0,0-.4-.47l-.52-.06,0,.24.1,0-.09.73h-.1l0,.24.49.06Zm0-.75h.14a.16.16,0,0,1,.14.19c0,.1-.07.16-.18.15l-.15,0Z"/><path class="a7db319f-946f-45cb-a0ce-4e82e38ba3d3" d="M73.63,42.64l0,.24.46.06,0-.25H74l0-.2h.1l.17.46.34.05,0-.25-.14,0-.1-.27a.31.31,0,0,0,.25-.3c0-.24-.11-.42-.4-.46l-.53-.06,0,.24.11,0-.09.73Zm.48-.69.16,0a.14.14,0,0,1,.13.18.14.14,0,0,1-.17.14l-.16,0Z"/><path class="a7db319f-946f-45cb-a0ce-4e82e38ba3d3" d="M75.28,43.12a.65.65,0,0,0,.16-1.28.58.58,0,0,0-.66.57.57.57,0,0,0,.5.71m-.21-.68c0-.25.16-.35.34-.33s.28.16.25.41-.17.35-.34.33-.28-.16-.25-.41"/><path class="a7db319f-946f-45cb-a0ce-4e82e38ba3d3" d="M76.11,42l0,.25h.11l-.09.73H76l0,.25.54.06A.62.62,0,0,0,76.65,42Zm.75.72c0,.26-.19.34-.35.32h-.13l.09-.74.13,0c.16,0,.3.14.26.41"/><path class="a7db319f-946f-45cb-a0ce-4e82e38ba3d3" d="M77.29,42.83a.47.47,0,0,0,.42.59c.31,0,.51-.12.56-.47l.06-.47h.1l0-.25L78,42.18l0,.25h.09l0,.48c0,.18-.1.25-.24.23s-.2-.11-.18-.29l.06-.47h.1l0-.24-.5-.07,0,.25h.11Z"/><path class="a7db319f-946f-45cb-a0ce-4e82e38ba3d3" d="M78.93,43.57a.54.54,0,0,0,.56-.29l-.27-.11a.25.25,0,0,1-.26.13c-.18,0-.27-.16-.24-.41s.15-.35.33-.33a.25.25,0,0,1,.23.25v0l.25,0,.07-.49-.24,0v.08h0a.39.39,0,0,0-.27-.14c-.31,0-.57.15-.62.57a.56.56,0,0,0,.49.71"/><polygon class="a7db319f-946f-45cb-a0ce-4e82e38ba3d3" points="79.6 43.38 79.57 43.63 80.06 43.69 80.1 43.44 79.99 43.43 80.08 42.69 80.19 42.71 80.22 42.46 79.72 42.4 79.69 42.65 79.8 42.66 79.71 43.39 79.6 43.38"/><path class="a7db319f-946f-45cb-a0ce-4e82e38ba3d3" d="M80.22,43.45l0,.25.46.06,0-.25h-.07l0-.19h.1l.16.47.35,0,0-.25h-.15L81,43.3a.33.33,0,0,0,.25-.3c0-.24-.11-.42-.4-.46l-.54-.07,0,.25h.11l-.09.74Zm.48-.68.15,0a.16.16,0,0,1,0,.32l-.16,0Z"/><path class="a7db319f-946f-45cb-a0ce-4e82e38ba3d3" d="M71.44,43.76h.08l-.09.11-.1.13h0l-.07-.15-.05-.13h.08l0-.25-.5-.06,0,.25h.1l.25.54,0,.23H71l0,.25.5.06,0-.25h-.11l0-.24.37-.46h.11l0-.24-.45-.06Z"/><path class="a7db319f-946f-45cb-a0ce-4e82e38ba3d3" d="M72.5,44.83h0a.41.41,0,0,0,.24.11.35.35,0,0,0,.43-.32c0-.27-.16-.37-.33-.45s-.21-.09-.2-.19.07-.1.16-.09a.16.16,0,0,1,.16.19v0l.26,0,0-.42-.24,0,0,.06h0a.36.36,0,0,0-.24-.11.34.34,0,0,0-.41.31c0,.26.15.36.29.43s.25.1.23.21-.06.11-.17.1a.16.16,0,0,1-.16-.2v0l-.25,0,0,.41.24,0Z"/><path class="a7db319f-946f-45cb-a0ce-4e82e38ba3d3" d="M74,43.79a.65.65,0,1,0,.5.71.57.57,0,0,0-.5-.71m.22.68c0,.25-.17.36-.34.33s-.28-.15-.25-.41.17-.35.34-.33.28.16.25.41"/><path class="a7db319f-946f-45cb-a0ce-4e82e38ba3d3" d="M75.6,44.93l-.27-.11a.26.26,0,0,1-.26.14c-.18,0-.27-.16-.24-.42s.15-.35.33-.33a.25.25,0,0,1,.23.26v0l.25,0,.06-.48-.23,0v.08h0a.36.36,0,0,0-.27-.14c-.31,0-.57.15-.63.56a.57.57,0,0,0,.49.71.53.53,0,0,0,.57-.29"/><polygon class="a7db319f-946f-45cb-a0ce-4e82e38ba3d3" points="76.3 44.36 76.33 44.11 75.83 44.05 75.8 44.3 75.91 44.31 75.82 45.05 75.71 45.03 75.68 45.28 76.17 45.34 76.2 45.09 76.1 45.08 76.19 44.35 76.3 44.36"/><path class="a7db319f-946f-45cb-a0ce-4e82e38ba3d3" d="M76.61,44.4h.1l-.06.14-.27.57-.1,0,0,.25.45.06,0-.25h-.07l0-.13.37,0,0,.14H77l0,.24.48.06,0-.25h-.1l-.19-1-.57-.07Zm.22.35.14-.34h0s0,.18,0,.36v.06l-.24,0Z"/><polygon class="a7db319f-946f-45cb-a0ce-4e82e38ba3d3" points="77.58 45.27 77.55 45.51 78.46 45.63 78.51 45.21 78.25 45.18 78.22 45.34 77.97 45.31 78.06 44.58 78.17 44.59 78.2 44.35 77.7 44.28 77.67 44.53 77.78 44.55 77.69 45.28 77.58 45.27"/><polygon class="a7db319f-946f-45cb-a0ce-4e82e38ba3d3" points="78.59 45.39 78.56 45.64 79.06 45.7 79.09 45.45 78.98 45.44 79.07 44.71 79.18 44.72 79.21 44.47 78.72 44.41 78.69 44.66 78.79 44.67 78.7 45.4 78.59 45.39"/><path class="a7db319f-946f-45cb-a0ce-4e82e38ba3d3" d="M79.21,45.44l0,.27.95.12.05-.41-.26,0,0,.16-.17,0-.18,0h0a1.33,1.33,0,0,0,.18-.15l.52-.47,0-.28-.93-.11,0,.39.27,0v-.15l.18,0,.16,0h0l-.16.15Z"/><path class="a7db319f-946f-45cb-a0ce-4e82e38ba3d3" d="M80.6,44.64l0,.25h.1l-.06.14-.27.57-.1,0,0,.25.45.06,0-.25h-.08l.06-.12.37,0,0,.14H81l0,.24.48.06,0-.24-.1,0-.2-1Zm.16.65,0,0c.08-.17.14-.34.15-.34h0s0,.18,0,.36l0,.06Z"/><path class="a7db319f-946f-45cb-a0ce-4e82e38ba3d3" d="M82,45.81h-.08l0-.19h.1l.16.47.35,0,0-.24-.15,0-.1-.27a.32.32,0,0,0,.25-.3.4.4,0,0,0-.39-.46l-.54-.06,0,.24.1,0-.09.73h-.1l0,.24.46.06Zm0-.74.16,0a.14.14,0,0,1,.14.18.15.15,0,0,1-.18.14l-.16,0Z"/><polygon class="a7db319f-946f-45cb-a0ce-4e82e38ba3d3" points="73.43 46.29 73.48 45.9 72.55 45.78 72.52 46.03 72.63 46.04 72.54 46.78 72.43 46.76 72.4 47.01 73.33 47.13 73.39 46.72 73.13 46.68 73.11 46.85 72.82 46.81 72.85 46.55 73.11 46.58 73.14 46.35 72.88 46.31 72.91 46.08 73.19 46.11 73.17 46.26 73.43 46.29"/><polygon class="a7db319f-946f-45cb-a0ce-4e82e38ba3d3" points="74.14 46.98 73.88 46.94 73.97 46.21 74.08 46.22 74.11 45.98 73.62 45.92 73.59 46.16 73.69 46.18 73.6 46.91 73.5 46.9 73.47 47.14 74.38 47.26 74.43 46.85 74.16 46.81 74.14 46.98"/><path class="a7db319f-946f-45cb-a0ce-4e82e38ba3d3" d="M75.48,46.64c-.11,0-.21-.09-.2-.2s.07-.1.16-.09a.18.18,0,0,1,.16.2v0l.25,0,0-.42-.24,0v.06h0a.38.38,0,0,0-.65.19c0,.27.16.36.3.43s.24.1.23.21-.07.12-.17.11-.18-.08-.16-.2v0l-.25,0-.05.42.24,0v-.06h0a.33.33,0,0,0,.24.11.35.35,0,0,0,.43-.32c0-.27-.16-.37-.33-.44"/><path class="a7db319f-946f-45cb-a0ce-4e82e38ba3d3" d="M76.78,46.31l-.56-.07,0,.25h.1l-.07.14L76,47.2h-.1l0,.25.45.05,0-.25h-.08l.06-.12.37,0,0,.13H76.6l0,.25.48.06,0-.25H77Zm-.4.58,0,0c.08-.18.14-.34.14-.34h0s0,.18,0,.37l0,.06Z"/><path class="a7db319f-946f-45cb-a0ce-4e82e38ba3d3" d="M77.86,46.44l-.58-.07,0,.25h.1l-.09.73h-.1l0,.25.58.07a.36.36,0,0,0,.45-.3A.29.29,0,0,0,78,47h0a.25.25,0,0,0,.19-.23.33.33,0,0,0-.31-.36m-.15,1-.17,0,0-.29.17,0a.13.13,0,0,1,.12.16.13.13,0,0,1-.16.13m0-.51-.14,0,0-.25.14,0a.13.13,0,0,1,0,.25"/><polygon class="a7db319f-946f-45cb-a0ce-4e82e38ba3d3" points="79.25 47.01 79.3 46.62 78.37 46.51 78.34 46.75 78.45 46.77 78.35 47.5 78.25 47.48 78.22 47.73 79.15 47.85 79.2 47.44 78.94 47.4 78.92 47.57 78.64 47.53 78.67 47.27 78.93 47.3 78.95 47.07 78.7 47.04 78.73 46.8 79.01 46.84 78.99 46.98 79.25 47.01"/><path class="a7db319f-946f-45cb-a0ce-4e82e38ba3d3" d="M80,46.7l-.53-.06,0,.24.1,0-.09.73h-.11l0,.24.46.06,0-.25H79.7l0-.2h.11L80,48l.34,0,0-.24-.15,0-.1-.27a.31.31,0,0,0,.25-.3c0-.24-.11-.42-.4-.46m-.06.57-.16,0,0-.32L80,47a.14.14,0,0,1,.13.18.14.14,0,0,1-.17.14"/><path class="b9f6bd54-bd41-4bfa-9d5c-c90073b14831" d="M144.09,68.94a26,26,0,0,1-10.63-2A15.65,15.65,0,0,1,126.4,61a17.21,17.21,0,0,1-2.49-9.48V26.62l-5.15-1.05v-6.4h21.09v6.4l-5.16,1.05v24.9a10.76,10.76,0,0,0,1.11,5.15A7.09,7.09,0,0,0,139,59.74a11.59,11.59,0,0,0,5,1,11.94,11.94,0,0,0,5.15-1,7,7,0,0,0,3.22-3.07,10.88,10.88,0,0,0,1.1-5.15V26.62l-5.13-1.05v-6.4h21.1v6.4l-5.19,1.05v24.9A16.87,16.87,0,0,1,161.76,61a16,16,0,0,1-7.07,6A25.63,25.63,0,0,1,144.09,68.94Z"/><path class="b9f6bd54-bd41-4bfa-9d5c-c90073b14831" d="M174.13,68.23V61.86l5.18-1V26.62l-5.18-1.05v-6.4h23.58a22.87,22.87,0,0,1,10,2,15.11,15.11,0,0,1,6.45,5.59,15.41,15.41,0,0,1,2.25,8.37,15.26,15.26,0,0,1-2.25,8.32A15,15,0,0,1,207.67,49a23,23,0,0,1-10,2H190.1v9.81l5.15,1v6.37Zm16-25.51h7.61c2.61,0,4.57-.7,5.9-2.12a7.58,7.58,0,0,0,2-5.39,8,8,0,0,0-2-5.59,7.57,7.57,0,0,0-5.9-2.19H190.1Z"/><path class="b9f6bd54-bd41-4bfa-9d5c-c90073b14831" d="M244.56,68.94A25.84,25.84,0,0,1,232.09,66a20.61,20.61,0,0,1-8.39-8.34,26.46,26.46,0,0,1-3-13V42.76a27.12,27.12,0,0,1,2.83-12.59,21.08,21.08,0,0,1,8.07-8.59,23.87,23.87,0,0,1,12.45-3.11,32.38,32.38,0,0,1,9.55,1.38,23,23,0,0,1,8.17,4.48V36.56h-7.92l-1.07-7.35a16.86,16.86,0,0,0-2.43-1.34,12.55,12.55,0,0,0-2.76-.88,16.18,16.18,0,0,0-3.2-.3,12.2,12.2,0,0,0-6.88,1.92A12.47,12.47,0,0,0,233,34.1a21.19,21.19,0,0,0-1.58,8.59v2a20.42,20.42,0,0,0,1.63,8.47,12.85,12.85,0,0,0,4.64,5.61,12.26,12.26,0,0,0,7,2,19.19,19.19,0,0,0,4.18-.46,24.11,24.11,0,0,0,3.91-1.19l1.11-6.91h7.92v12a28.71,28.71,0,0,1-7.3,3.35A32.85,32.85,0,0,1,244.56,68.94Z"/><path class="b9f6bd54-bd41-4bfa-9d5c-c90073b14831" d="M267.72,68.23V61.86l5.19-1V26.62l-5.19-1.05v-6.4h21.12v6.4l-5.15,1.05V39.93h19V26.62l-5.15-1.05v-6.4h21.09v6.4l-5.19,1.05v34.2l5.19,1v6.37H297.5V61.86l5.15-1V48.25h-19V60.82l5.15,1v6.37Z"/><path class="b4fafcef-bee9-48ee-ab05-e31491da3cd5" d="M127.39,99.92a5.88,5.88,0,0,1-2.71-.59,4.34,4.34,0,0,1-1.84-1.71,5.27,5.27,0,0,1-.67-2.72V85.81l-1.67-.13v-.9h4.58v.9l-1.68.13V94.9a4.26,4.26,0,0,0,.51,2.16,3.4,3.4,0,0,0,1.41,1.35,4.49,4.49,0,0,0,2.08.47,4.7,4.7,0,0,0,2.1-.46,3.42,3.42,0,0,0,1.42-1.35,4.3,4.3,0,0,0,.51-2.17V85.81l-1.67-.13v-.9h4.58v.9l-1.68.13V94.9a5.33,5.33,0,0,1-.66,2.75,4.26,4.26,0,0,1-1.85,1.69A6.16,6.16,0,0,1,127.39,99.92Z"/><path class="b4fafcef-bee9-48ee-ab05-e31491da3cd5" d="M137.67,99.71v-.89l1.67-.14V85.81l-1.67-.13v-.9h2.91l8.53,12.84.07,0V85.81l-1.75-.13v-.9H152v.9l-1.68.13v13.9h-1.14l-8.63-12.89-.06,0V98.68l1.74.14v.89Z"/><path class="b4fafcef-bee9-48ee-ab05-e31491da3cd5" d="M155.47,99.71v-.89l1.67-.14V85.81l-1.67-.13v-.9H160v.9l-1.67.13V98.68l1.67.14v.89Z"/><path class="b4fafcef-bee9-48ee-ab05-e31491da3cd5" d="M169.65,99.71l-5.2-14-1.14-.07v-.9h3.94v.9l-1.48.09,4.14,11.34.3,1h.07l.3-1,4.2-11.34-1.55-.09v-.9h3.94v.9l-1.15.07-5.2,14Z"/><path class="b4fafcef-bee9-48ee-ab05-e31491da3cd5" d="M180.42,99.71v-.89l1.67-.14V85.81l-1.67-.13v-.9h10.73v3.27H190.1l-.1-2.26h-6.68v5.65h6v1h-6v6.24h7l.11-2.27h1v3.27Z"/><path class="b4fafcef-bee9-48ee-ab05-e31491da3cd5" d="M195.51,99.72v-.9l1.67-.14V85.81l-1.67-.13v-.89h6.29a7,7,0,0,1,2.71.47,3.68,3.68,0,0,1,1.69,1.37,4.13,4.13,0,0,1,.58,2.23,3.74,3.74,0,0,1-.6,2.16,3.67,3.67,0,0,1-1.69,1.34,6.52,6.52,0,0,1-2.53.47l-3.55,0v5.82l1.67.14v.9Zm2.9-7.89h3.27a4.35,4.35,0,0,0,2.93-.82,2.73,2.73,0,0,0,.94-2.16,2.8,2.8,0,0,0-.94-2.24,4.24,4.24,0,0,0-2.81-.8h-3.39Zm7.14,7.89-3.21-7.42h1.23l2.85,6.43,1.22.09v.91Z"/><path class="b4fafcef-bee9-48ee-ab05-e31491da3cd5" d="M216.83,99.92a8.69,8.69,0,0,1-2.56-.39,9,9,0,0,1-2.47-1.21V95.43h1l.15,2.33a7.28,7.28,0,0,0,3.85,1.12,5.18,5.18,0,0,0,2-.37,3.2,3.2,0,0,0,1.37-1,2.49,2.49,0,0,0,.48-1.5,2.63,2.63,0,0,0-.39-1.44,3.3,3.3,0,0,0-1.28-1.1,11.49,11.49,0,0,0-2.41-.86,12.16,12.16,0,0,1-2.66-1,4.07,4.07,0,0,1-1.52-1.36,3.59,3.59,0,0,1-.48-1.89,3.42,3.42,0,0,1,.59-2,4,4,0,0,1,1.67-1.34,6,6,0,0,1,2.49-.49,7.57,7.57,0,0,1,2.7.45,6.92,6.92,0,0,1,2,1.16v2.67h-1l-.16-2.11a4.67,4.67,0,0,0-1.53-.82,6.14,6.14,0,0,0-2-.3,4.47,4.47,0,0,0-1.88.36,3,3,0,0,0-1.22,1,2.61,2.61,0,0,0-.08,2.71,2.77,2.77,0,0,0,1.17,1,11.11,11.11,0,0,0,2.32.83,9.1,9.1,0,0,1,3.67,1.69A3.49,3.49,0,0,1,222,96a3.36,3.36,0,0,1-.65,2.07,4.19,4.19,0,0,1-1.81,1.38A6.73,6.73,0,0,1,216.83,99.92Z"/><path class="b4fafcef-bee9-48ee-ab05-e31491da3cd5" d="M225.62,99.71v-.89l1.67-.14V85.81l-1.67-.13v-.9h4.57v.9l-1.67.13V98.68l1.67.14v.89Z"/><path class="b4fafcef-bee9-48ee-ab05-e31491da3cd5" d="M233.63,99.71v-.89l1.67-.14V85.81l-1.67-.13v-.9h5.77a6,6,0,0,1,3.36,1,6.54,6.54,0,0,1,2.27,2.6,8.41,8.41,0,0,1,.82,3.79v.25a8.46,8.46,0,0,1-.81,3.77,6.38,6.38,0,0,1-2.25,2.61,5.87,5.87,0,0,1-3.34,1Zm2.9-1h2.87a4.62,4.62,0,0,0,2.73-.83A5.66,5.66,0,0,0,244,95.58a7.55,7.55,0,0,0,.66-3.21V92.1a7.53,7.53,0,0,0-.66-3.22,5.53,5.53,0,0,0-1.83-2.25,4.68,4.68,0,0,0-2.73-.82h-2.87Z"/><path class="b4fafcef-bee9-48ee-ab05-e31491da3cd5" d="M248.68,99.71v-.89l1.09-.08,5.3-14h1.17l5.26,14,1.1.08v.89h-3.68v-.89l1.31-.1L259,95.35H252.3L251,98.72l1.32.1v.89Zm4-5.44h5.9l-2.7-7.33-.2-.6h-.06l-.22.6Z"/><path class="b4fafcef-bee9-48ee-ab05-e31491da3cd5" d="M266.09,99.71v-.89l1.67-.14V85.81l-1.67-.13v-.9h5.77a5.93,5.93,0,0,1,3.36,1,6.54,6.54,0,0,1,2.27,2.6,8.41,8.41,0,0,1,.82,3.79v.25a8.46,8.46,0,0,1-.81,3.77,6.38,6.38,0,0,1-2.25,2.61,5.87,5.87,0,0,1-3.34,1Zm2.9-1h2.87a4.62,4.62,0,0,0,2.73-.83,5.66,5.66,0,0,0,1.83-2.27,7.55,7.55,0,0,0,.66-3.21V92.1a7.53,7.53,0,0,0-.66-3.22,5.53,5.53,0,0,0-1.83-2.25,4.68,4.68,0,0,0-2.73-.82H269Z"/><path class="b4fafcef-bee9-48ee-ab05-e31491da3cd5" d="M289.06,99.71v-.89l1.67-.14V85.81l-1.67-.13v-.9h6.29a6,6,0,0,1,2.68.54,3.86,3.86,0,0,1,1.67,1.52,4.93,4.93,0,0,1,0,4.6A3.86,3.86,0,0,1,298,93a6.18,6.18,0,0,1-2.68.53H292v5.19l1.67.14v.89Zm2.9-7.24h3.39a3.72,3.72,0,0,0,2.77-1,3.54,3.54,0,0,0,0-4.76,3.69,3.69,0,0,0-2.77-1H292Z"/><path class="b4fafcef-bee9-48ee-ab05-e31491da3cd5" d="M310.63,99.92a5.93,5.93,0,0,1-2.56-.54,5.59,5.59,0,0,1-2-1.55,7.08,7.08,0,0,1-1.26-2.39,10,10,0,0,1-.44-3.09v-.2a10.35,10.35,0,0,1,.43-3.09,7,7,0,0,1,1.26-2.4,5.59,5.59,0,0,1,2-1.55,5.79,5.79,0,0,1,2.56-.55,5.91,5.91,0,0,1,2.6.55,5.5,5.5,0,0,1,2,1.55,7,7,0,0,1,1.24,2.4,10.68,10.68,0,0,1,.43,3.09v.2a10.68,10.68,0,0,1-.43,3.09,7,7,0,0,1-1.23,2.39,5.5,5.5,0,0,1-2,1.55A6,6,0,0,1,310.63,99.92Zm0-1.07a4.56,4.56,0,0,0,2.74-.81,5,5,0,0,0,1.68-2.28,9.4,9.4,0,0,0,.58-3.41v-.22a9.27,9.27,0,0,0-.58-3.4,5.08,5.08,0,0,0-1.7-2.27,4.47,4.47,0,0,0-2.73-.82,4.34,4.34,0,0,0-2.66.82,5.11,5.11,0,0,0-1.72,2.27,8.93,8.93,0,0,0-.6,3.4v.22a9,9,0,0,0,.6,3.41A5.09,5.09,0,0,0,308,98,4.45,4.45,0,0,0,310.63,98.85Z"/><path class="b4fafcef-bee9-48ee-ab05-e31491da3cd5" d="M320.63,99.71v-.89l1.68-.14V85.81l-1.68-.13v-.9h6.3a6.07,6.07,0,0,1,2.68.54,3.92,3.92,0,0,1,1.67,1.52,4.93,4.93,0,0,1,0,4.6A3.92,3.92,0,0,1,329.61,93a6.22,6.22,0,0,1-2.68.53h-3.39v5.19l1.67.14v.89Zm2.91-7.24h3.39a3.72,3.72,0,0,0,2.77-1,3.54,3.54,0,0,0,0-4.76,3.69,3.69,0,0,0-2.77-1h-3.39Z"/><path class="b4fafcef-bee9-48ee-ab05-e31491da3cd5" d="M342.36,99.92a5.9,5.9,0,0,1-2.71-.59,4.4,4.4,0,0,1-1.84-1.71,5.27,5.27,0,0,1-.66-2.72V85.81l-1.68-.13v-.9h4.58v.9l-1.67.13V94.9a4.26,4.26,0,0,0,.5,2.16,3.4,3.4,0,0,0,1.41,1.35,4.49,4.49,0,0,0,2.08.47,4.7,4.7,0,0,0,2.1-.46,3.36,3.36,0,0,0,1.42-1.35,4.3,4.3,0,0,0,.52-2.17V85.81l-1.68-.13v-.9h4.58v.9l-1.67.13V94.9a5.24,5.24,0,0,1-.67,2.75,4.21,4.21,0,0,1-1.85,1.69A6.16,6.16,0,0,1,342.36,99.92Z"/><path class="b4fafcef-bee9-48ee-ab05-e31491da3cd5" d="M352.63,99.71v-.89l1.67-.14V85.81l-1.67-.13v-.9h4.58v.9l-1.67.13V98.69h6.26l.11-2.41h1v3.43Z"/><path class="b4fafcef-bee9-48ee-ab05-e31491da3cd5" d="M366.71,99.71v-.89l1.1-.08,5.3-14h1.17l5.26,14,1.1.08v.89H377v-.89l1.31-.1L377,95.35h-6.7l-1.25,3.37,1.32.1v.89Zm4-5.44h5.9l-2.7-7.33-.2-.6h-.06l-.22.6Z"/><path class="b4fafcef-bee9-48ee-ab05-e31491da3cd5" d="M384.13,99.72v-.9l1.67-.14V85.81l-1.67-.13v-.89h6.29a7,7,0,0,1,2.71.47,3.68,3.68,0,0,1,1.69,1.37,4,4,0,0,1,.58,2.23,3.74,3.74,0,0,1-.6,2.16,3.69,3.69,0,0,1-1.68,1.34,6.58,6.58,0,0,1-2.54.47l-3.55,0v5.82l1.67.14v.9Zm2.9-7.89h3.27a4.35,4.35,0,0,0,2.93-.82,2.7,2.7,0,0,0,.94-2.16,2.77,2.77,0,0,0-.94-2.24,4.23,4.23,0,0,0-2.81-.8H387Zm7.14,7.89L391,92.3h1.23L395,98.72l1.22.09v.91Z"/><path class="b4fafcef-bee9-48ee-ab05-e31491da3cd5" d="M120.62,124.91V124l1.67-.14V111l-1.67-.13V110h5.77a5.9,5.9,0,0,1,3.35,1,6.46,6.46,0,0,1,2.27,2.6,8.42,8.42,0,0,1,.83,3.79v.25a8.46,8.46,0,0,1-.81,3.77,6.48,6.48,0,0,1-2.25,2.62,6,6,0,0,1-3.34,1Zm2.9-1h2.87a4.62,4.62,0,0,0,2.73-.83,5.66,5.66,0,0,0,1.83-2.27,7.55,7.55,0,0,0,.66-3.21v-.27a7.53,7.53,0,0,0-.66-3.22,5.53,5.53,0,0,0-1.83-2.25,4.68,4.68,0,0,0-2.73-.82h-2.87Z"/><path class="b4fafcef-bee9-48ee-ab05-e31491da3cd5" d="M136.57,124.91V124l1.68-.14V111l-1.68-.13V110H147.3v3.27h-1.05l-.1-2.26h-6.67v5.65h6v1h-6v6.24h7l.1-2.27h1v3.27Z"/><path class="b4fafcef-bee9-48ee-ab05-e31491da3cd5" d="M158.67,124.91V124l1.67-.14V111l-1.67-.13V110h4.57v.9l-1.67.13v12.88h6.26l.12-2.41h1v3.43Z"/><path class="b4fafcef-bee9-48ee-ab05-e31491da3cd5" d="M172.75,124.91V124l1.1-.08,5.3-14h1.17l5.26,14,1.09.08v.89H183V124l1.32-.1-1.25-3.37h-6.69l-1.25,3.37,1.31.1v.89Zm4-5.44h5.89L180,112.14l-.21-.6h-.06l-.21.6Z"/><path class="b4fafcef-bee9-48ee-ab05-e31491da3cd5" d="M204.28,125.12a6.74,6.74,0,0,1-3.73-1,6,6,0,0,1-2.29-2.68,9.52,9.52,0,0,1-.77-3.92v-.2a9.24,9.24,0,0,1,.8-3.94,6.44,6.44,0,0,1,2.28-2.68,6.24,6.24,0,0,1,3.47-1,7.47,7.47,0,0,1,2.65.43,6.62,6.62,0,0,1,2,1.18v2.91h-1l-.1-2.38a5.49,5.49,0,0,0-1-.58,5,5,0,0,0-1.11-.36,6.67,6.67,0,0,0-1.42-.13,4.81,4.81,0,0,0-2.82.83,5.31,5.31,0,0,0-1.85,2.28,8.37,8.37,0,0,0-.65,3.39v.22a8.36,8.36,0,0,0,.66,3.45,5.15,5.15,0,0,0,1.91,2.27,5.46,5.46,0,0,0,3,.8,6.89,6.89,0,0,0,1.82-.24,5.32,5.32,0,0,0,1.48-.62l.1-2.26h1v3a7,7,0,0,1-2.06.9A9.37,9.37,0,0,1,204.28,125.12Z"/><path class="b4fafcef-bee9-48ee-ab05-e31491da3cd5" d="M212.61,124.91V124l1.67-.14V111l-1.67-.13V110h4.57v.9l-1.67.13v6h8.43v-6l-1.67-.13V110h4.57v.9l-1.67.13v12.87l1.67.14v.89h-4.57V124l1.67-.14V118h-8.43v5.85l1.67.14v.89Z"/><path class="b4fafcef-bee9-48ee-ab05-e31491da3cd5" d="M236.78,125.12a6,6,0,0,1-2.57-.54,5.55,5.55,0,0,1-2-1.55,7.28,7.28,0,0,1-1.27-2.39,10.34,10.34,0,0,1-.44-3.09v-.2a10.34,10.34,0,0,1,.44-3.09,7,7,0,0,1,1.26-2.4,5.55,5.55,0,0,1,2-1.55,5.83,5.83,0,0,1,2.57-.55,5.94,5.94,0,0,1,2.6.55,5.59,5.59,0,0,1,2,1.55,7.18,7.18,0,0,1,1.24,2.4,10.69,10.69,0,0,1,.42,3.09v.2a10.69,10.69,0,0,1-.42,3.09,7.23,7.23,0,0,1-1.24,2.39,5.47,5.47,0,0,1-2,1.55A6.08,6.08,0,0,1,236.78,125.12Zm0-1.07a4.51,4.51,0,0,0,2.73-.81A5,5,0,0,0,241.2,121a9.41,9.41,0,0,0,.57-3.41v-.22a9.07,9.07,0,0,0-.58-3.4,5,5,0,0,0-1.69-2.27,4.49,4.49,0,0,0-2.73-.82,4.37,4.37,0,0,0-2.67.82,5.19,5.19,0,0,0-1.72,2.27,8.93,8.93,0,0,0-.6,3.4v.22a9,9,0,0,0,.6,3.41,5.11,5.11,0,0,0,1.73,2.28A4.43,4.43,0,0,0,236.78,124.05Z"/><path class="b4fafcef-bee9-48ee-ab05-e31491da3cd5" d="M246.79,124.91V124l1.67-.14V111l-1.67-.13V110h2.91l8.53,12.84.06,0V111l-1.74-.13V110h4.57v.9l-1.67.13v13.9H258.3L249.68,112l-.06,0v11.84l1.74.14v.89Z"/><path class="b4fafcef-bee9-48ee-ab05-e31491da3cd5" d="M268.36,124.91V124l1.67-.14V111h-4.2l-.13,2.28h-1V110h11.88v3.28h-1l-.14-2.28h-4.18v12.9l1.67.14v.89Z"/><path class="b4fafcef-bee9-48ee-ab05-e31491da3cd5" d="M277.91,124.91V124l1.09-.08,5.3-14h1.17l5.26,14,1.1.08v.89h-3.68V124l1.31-.1-1.24-3.37h-6.69l-1.26,3.37,1.32.1v.89Zm4-5.44h5.89l-2.7-7.33-.2-.6h-.06l-.22.6Z"/><path class="b4fafcef-bee9-48ee-ab05-e31491da3cd5" d="M295.32,124.91V124l1.67-.14V111l-1.67-.13V110h4.57v.9l-1.67.13v12.88h6.27l.11-2.41h1v3.43Z"/><path class="b4fafcef-bee9-48ee-ab05-e31491da3cd5" d="M309.35,124.91V124l1.67-.14V111l-1.67-.13V110h6.3a6,6,0,0,1,2.67.54A3.94,3.94,0,0,1,320,112a4.93,4.93,0,0,1,0,4.6,3.94,3.94,0,0,1-1.68,1.52,6.14,6.14,0,0,1-2.67.53h-3.4v5.19l1.67.14v.89Zm2.9-7.24h3.4a3.72,3.72,0,0,0,2.77-1,3.27,3.27,0,0,0,.92-2.36,3.33,3.33,0,0,0-.92-2.4,3.7,3.7,0,0,0-2.77-.95h-3.4Z"/><path class="b4fafcef-bee9-48ee-ab05-e31491da3cd5" d="M321.71,124.91V124l1.1-.08,5.3-14h1.17l5.26,14,1.1.08v.89H332V124l1.32-.1L332,120.55h-6.7l-1.25,3.37,1.31.1v.89Zm4-5.44h5.9l-2.7-7.33-.21-.6h-.06l-.21.6Z"/></g></g></svg>